<?xml version="1.0" encoding="UTF-8"?>
<svg width="900px" height="207px" viewBox="0 0 900 207" version="1.1" xmlns="http://www.w3.org/2000/svg" xmlns:xlink="http://www.w3.org/1999/xlink">
    <!-- Generator: Sketch 46.2 (44496) - http://www.bohemiancoding.com/sketch -->
    <title>Page 1</title>
    <desc>Created with Sketch.</desc>
    <defs>
        <polygon id="path-1" points="18.3 0.458076923 0.356538462 0.458076923 0.356538462 33.4256538 18.3 33.4256538 18.3 0.458076923"></polygon>
        <polygon id="path-3" points="18.3056538 0.458076923 0.361038462 0.458076923 0.361038462 33.4256538 18.3056538 33.4256538 18.3056538 0.458076923"></polygon>
        <polygon id="path-5" points="15.8127692 0.458076923 0.411230769 0.458076923 0.411230769 33.4264615 15.8127692 33.4264615 15.8127692 0.458076923"></polygon>
        <polygon id="path-7" points="15.7482692 0.458076923 0.299423077 0.458076923 0.299423077 33.4254231 15.7482692 33.4254231"></polygon>
        <polygon id="path-9" points="13.6521923 0.458076923 0.5595 0.458076923 0.5595 33.4263462 13.6521923 33.4263462 13.6521923 0.458076923"></polygon>
        <polygon id="path-11" points="0 207.234231 899.117308 207.234231 899.117308 1.15384615 0 1.15384615"></polygon>
    </defs>
    <g id="Page-1" stroke="none" stroke-width="1" fill="none" fill-rule="evenodd">
        <g transform="translate(0.000000, -1.000000)">
            <path d="M829.886077,201.380423 C865.136077,199.864269 893.347615,170.725038 893.347615,135.106962 C893.347615,99.4911923 865.136077,70.3508077 829.886077,68.8346538 L829.886077,85.7142692 C834.389538,85.7719615 843.661846,86.1250385 855.279923,87.8777308 L857.646462,88.2342692 L857.731846,90.6158077 C857.756077,91.1269615 858.413769,101.483885 869.885308,105.179654 L871.992231,105.859269 L870.360692,138.503885 C870.303,139.912731 868.483385,173.399654 829.886077,192.641192 L829.886077,201.380423 Z M760.655308,135.106962 C760.655308,170.725038 788.868,199.864269 824.116846,201.380423 L824.116846,192.641192 C785.519538,173.399654 783.699923,139.912731 783.641077,138.475038 L782.010692,105.859269 L784.117615,105.179654 C795.753,101.431962 796.266462,90.7335 796.271077,90.6273462 L796.356462,88.2342692 L798.723,87.8777308 C810.341077,86.1238846 819.613385,85.7708077 824.116846,85.7131154 L824.116846,68.8346538 C788.868,70.3508077 760.655308,99.4911923 760.655308,135.106962 Z M865.036846,129.456577 L866.014154,109.902346 C855.956077,105.751962 853.094538,97.4177308 852.283385,93.2719615 C842.136462,91.8585 833.958,91.5458077 829.886077,91.4869615 L829.886077,117.8985 C835.762615,119.047731 840.420692,123.623885 841.688769,129.456577 L865.036846,129.456577 Z M829.886077,147.4035 L829.886077,186.153115 C862.987615,168.213115 864.584538,138.552346 864.597231,138.243115 L864.748385,135.225808 L841.800692,135.225808 C840.736846,141.351577 835.968,146.215038 829.886077,147.4035 Z M812.250692,135.536192 L789.270692,135.536192 L789.404538,138.215423 C789.462231,139.503115 791.156077,168.341192 824.116846,186.156577 L824.116846,147.4035 C818.136462,146.235808 813.418385,141.515423 812.250692,135.536192 Z M827.001462,141.918115 C832.111846,141.918115 836.268,137.760808 836.268,132.651577 C836.268,127.541192 832.111846,123.383885 827.001462,123.383885 C821.892231,123.383885 817.734923,127.541192 817.734923,132.651577 C817.734923,137.760808 821.892231,141.918115 827.001462,141.918115 Z M787.988769,109.902346 L788.982231,129.766962 L812.250692,129.766962 C813.418385,123.786577 818.136462,119.067346 824.116846,117.8985 L824.116846,91.4869615 C820.044923,91.5458077 811.867615,91.8585 801.719538,93.2719615 C800.908385,97.4177308 798.046846,105.753115 787.988769,109.902346 Z M827.001462,62.9915769 C866.766462,62.9915769 899.116846,95.3431154 899.116846,135.106962 C899.116846,174.871962 866.766462,207.222346 827.001462,207.222346 C787.237615,207.222346 754.886077,174.871962 754.886077,135.106962 C754.886077,95.3431154 787.237615,62.9915769 827.001462,62.9915769 Z" id="Fill-1" fill="#FFC214"></path>
            <polygon id="Fill-3" fill="#FFC214" points="794.240769 34.0743462 790.706538 34.0743462 785.245385 7.84165385 785.245385 34.1216538 782.042308 34.1216538 782.042308 1.15396154 787.175769 1.15396154 792.590769 27.4812692 797.82 1.15396154 802.953462 1.15396154 802.953462 34.1216538 799.467692 34.1216538 799.467692 7.60626923"></polygon>
            <polygon id="Fill-5" fill="#FFC214" points="818.452385 15.7536923 818.452385 19.0502308 810.398538 19.0502308 810.398538 30.7779231 820.288154 30.7779231 820.288154 34.1217692 806.724692 34.1217692 806.724692 1.15407692 820.288154 1.15407692 820.288154 4.49792308 810.398538 4.49792308 810.398538 15.7536923"></polygon>
            <polygon id="Fill-7" fill="#FFC214" points="828.485423 34.1216538 828.485423 4.49780769 822.409269 4.49780769 822.409269 1.15396154 838.234269 1.15396154 838.234269 4.49780769 832.159269 4.49780769 832.159269 34.1216538"></polygon>
            <g id="Group-11" transform="translate(837.692308, 0.695769)">
                <mask id="mask-2" fill="white">
                    <use xlink:href="#path-1"></use>
                </mask>
                <g id="Clip-10"></g>
                <path d="M5.49,23.6295 L12.8365385,23.6295 L9.11653846,4.60257692 L5.49,23.6295 Z M5.01923077,26.7852692 L3.74653846,33.4256538 L0.356538462,33.4256538 L6.66692308,0.457961538 L11.9896154,0.457961538 L18.3,33.4256538 L14.6261538,33.4256538 L13.3546154,26.7852692 L5.01923077,26.7852692 Z" id="Fill-9" fill="#FFC214" mask="url(#mask-2)"></path>
            </g>
            <polygon id="Fill-12" fill="#FFC214" points="858.8685 34.1216538 858.8685 1.15396154 862.542346 1.15396154 862.542346 30.7778077 871.962346 30.7778077 871.962346 34.1216538"></polygon>
            <path d="M664.957038,195.502962 L664.957038,176.493346 L679.187423,162.262962 L679.187423,145.435269 L690.605885,131.435654 L702.842423,146.786423 C698.966654,168.5145 684.487038,186.603346 664.957038,195.502962 L664.957038,195.502962 Z M620.195885,199.136423 L682.384731,121.122577 L686.925115,126.819115 L673.418192,143.380269 L673.418192,159.8745 L659.187808,174.104885 L659.187808,197.810654 C652.399731,200.159885 645.124731,201.453346 637.546269,201.453346 C631.543962,201.453346 625.730885,200.637577 620.195885,199.136423 L620.195885,199.136423 Z M582.138577,171.538731 L637.010885,102.702577 L643.445885,110.774885 L623.418577,137.016808 L623.418577,151.096038 L603.5655,172.634885 L603.5655,192.063346 C594.973962,186.918346 587.642423,179.8845 582.138577,171.538731 L582.138577,171.538731 Z M602.758962,136.416808 L578.981654,166.242577 C575.438192,159.603346 572.994346,152.294885 571.8855,144.5595 L590.566269,121.122577 L602.758962,136.416808 Z M663.349731,135.745269 L614.321654,197.249885 C612.6255,196.612962 610.962808,195.907962 609.334731,195.140654 L609.334731,174.888346 L629.187808,153.3495 L629.187808,138.966808 L647.153192,115.427192 L663.349731,135.745269 Z M637.546269,68.7610385 C674.130115,68.7610385 703.892423,98.5233462 703.892423,135.107192 C703.892423,136.319885 703.8555,137.523346 703.790885,138.719885 L682.384731,111.867577 L667.040885,131.117192 L637.010885,93.4475769 L606.447808,131.788731 L590.566269,111.867577 L571.226654,136.1295 C571.222038,135.787962 571.200115,135.449885 571.200115,135.107192 C571.200115,98.5233462 600.963577,68.7610385 637.546269,68.7610385 L637.546269,68.7610385 Z M637.546269,62.9918077 C597.782423,62.9918077 565.430885,95.3421923 565.430885,135.107192 C565.430885,174.872192 597.782423,207.222577 637.546269,207.222577 C677.311269,207.222577 709.661654,174.872192 709.661654,135.107192 C709.661654,95.3421923 677.311269,62.9918077 637.546269,62.9918077 L637.546269,62.9918077 Z" id="Fill-14" fill="#A0854F"></path>
            <polygon id="Fill-16" fill="#A0854F" points="605.304115 15.7536923 605.304115 19.0502308 597.250269 19.0502308 597.250269 30.7779231 607.141038 30.7779231 607.141038 34.1217692 593.576423 34.1217692 593.576423 1.15407692 607.141038 1.15407692 607.141038 4.49792308 597.250269 4.49792308 597.250269 15.7536923"></polygon>
            <g id="Group-20" transform="translate(609.230769, 0.695769)">
                <mask id="mask-4" fill="white">
                    <use xlink:href="#path-3"></use>
                </mask>
                <g id="Clip-19"></g>
                <path d="M5.4945,23.6295 L12.8410385,23.6295 L9.12103846,4.60257692 L5.4945,23.6295 Z M5.02373077,26.7852692 L3.75219231,33.4256538 L0.361038462,33.4256538 L6.67257692,0.457961538 L11.9941154,0.457961538 L18.3056538,33.4256538 L14.6318077,33.4256538 L13.3591154,26.7852692 L5.02373077,26.7852692 Z" id="Fill-18" fill="#A0854F" mask="url(#mask-4)"></path>
            </g>
            <g id="Group-23" transform="translate(630.000000, 0.695769)">
                <mask id="mask-6" fill="white">
                    <use xlink:href="#path-5"></use>
                </mask>
                <g id="Clip-22"></g>
                <path d="M6.81738462,15.9999231 C9.73661538,15.9999231 11.4789231,15.0583846 11.4789231,11.4791538 L11.4789231,8.32338462 C11.4789231,5.35569231 10.3966154,3.80261538 7.66430769,3.80261538 L4.08507692,3.80261538 L4.08507692,15.9999231 L6.81738462,15.9999231 Z M7.75776923,0.457615385 C12.9396923,0.457615385 15.1066154,3.09530769 15.1066154,7.99453846 L15.1066154,10.6783846 C15.1066154,14.3037692 13.8339231,16.5653077 11.0081538,17.4606923 C14.022,18.3549231 15.1539231,20.8033846 15.1539231,24.3364615 L15.1539231,29.4699231 C15.1539231,30.9295385 15.2000769,32.2956923 15.8127692,33.4264615 L12.0916154,33.4264615 C11.6681538,32.4837692 11.4789231,31.6368462 11.4789231,29.4226154 L11.4789231,24.243 C11.4789231,20.5218462 9.73661538,19.3437692 6.67546154,19.3437692 L4.08507692,19.3437692 L4.08507692,33.4264615 L0.411230769,33.4264615 L0.411230769,0.457615385 L7.75776923,0.457615385 Z" id="Fill-21" fill="#A0854F" mask="url(#mask-6)"></path>
            </g>
            <polygon id="Fill-24" fill="#A0854F" points="653.774654 34.1216538 653.774654 4.49780769 647.6985 4.49780769 647.6985 1.15396154 663.5235 1.15396154 663.5235 4.49780769 657.4485 4.49780769 657.4485 34.1216538"></polygon>
            <g id="Group-28" transform="translate(665.769231, 0.695769)">
                <mask id="mask-8" fill="white">
                    <use xlink:href="#path-7"></use>
                </mask>
                <g id="Clip-27"></g>
                <polygon id="Fill-26" fill="#A0854F" mask="url(#mask-8)" points="3.97326923 18.5904231 3.97326923 33.4254231 0.299423077 33.4254231 0.299423077 0.457730769 3.97326923 0.457730769 3.97326923 15.2938846 12.0744231 15.2938846 12.0744231 0.457730769 15.7482692 0.457730769 15.7482692 33.4254231 12.0744231 33.4254231 12.0744231 18.5904231"></polygon>
            </g>
            <path d="M481.853769,194.823462 C489.864923,186.413077 494.323385,174.546923 493.170692,161.873077 C488.798769,113.807308 445.987615,93.1730769 444.166846,92.3192308 L439.342615,90.0530769 L440.084538,95.3319231 C442.823769,114.804231 434.051077,125.420769 427.002231,133.95 L426.098769,135.047308 C418.402615,144.407308 410.444538,154.084615 413.104154,172.992692 C414.263769,181.249615 417.643385,188.432308 422.583,194.058462 C401.244923,183.017308 386.618769,160.745769 386.618769,135.107308 C386.618769,98.5234615 416.381077,68.7611538 452.964923,68.7611538 C489.547615,68.7611538 519.311077,98.5234615 519.311077,135.107308 C519.311077,161.341154 504.003,184.065 481.853769,194.823462 M471.534923,185.553462 C470.270308,194.536154 463.334538,200.770385 454.648385,201.39 C454.291846,201.410769 453.938769,201.423462 453.584538,201.433846 C452.506846,201.452308 451.410692,201.406154 450.291462,201.248077 C440.166462,199.823077 433.256077,190.758462 434.220692,180.162692 C435.886846,161.839615 448.671462,150.871154 455.587615,146.22 C455.895692,156.087692 460.956462,162.211154 464.484923,166.482692 L465.003,167.109231 C469.356462,172.404231 472.794923,176.586923 471.534923,185.553462 M446.318769,100.108846 C457.265308,106.773462 484.173,126.638077 487.424538,162.395769 C488.559923,174.867692 483.726462,186.176538 475.204154,193.375385 C476.184923,191.221154 476.892231,188.877692 477.247615,186.357692 C478.861846,174.880385 474.081462,169.067308 469.459154,163.445769 L468.933,162.807692 C465.003,158.052692 460.113,152.134615 461.624538,141.39 L462.366462,136.111154 L457.542231,138.377308 C456.462231,138.885 431.068385,151.123846 428.474538,179.64 C427.983,185.045769 429.192231,190.2 431.631462,194.568462 C424.861846,189.401538 420.142615,181.616538 418.816846,172.188462 C416.510308,155.791154 423.018,147.875769 430.554923,138.710769 L431.450308,137.625 C438.163385,129.501923 447.139154,118.641923 446.318769,100.108846 M525.080308,135.107308 C525.080308,95.3423077 492.728769,62.9919231 452.964923,62.9919231 C413.199923,62.9919231 380.849538,95.3423077 380.849538,135.107308 C380.849538,173.788846 411.462231,205.442308 449.730692,207.140769 C450.618,207.197308 451.509923,207.234231 452.413385,207.234231 C452.550692,207.234231 452.692615,207.220385 452.829923,207.219231 C452.874923,207.219231 452.919923,207.222692 452.964923,207.222692 C452.985692,207.222692 453.007615,207.221538 453.029538,207.221538 C453.118385,207.222692 453.210692,207.230769 453.299538,207.230769 C453.608769,207.230769 453.908769,207.203077 454.214538,207.191538 C493.402615,206.518846 525.080308,174.453462 525.080308,135.107308" id="Fill-29" fill="#F3342F"></path>
            <g id="Group-33" transform="translate(424.615385, 0.695769)">
                <mask id="mask-10" fill="white">
                    <use xlink:href="#path-9"></use>
                </mask>
                <g id="Clip-32"></g>
                <polygon id="Fill-31" fill="#F3342F" mask="url(#mask-10)" points="11.8152692 15.8117308 11.8152692 19.1555769 4.23219231 19.1555769 4.23219231 33.4263462 0.5595 33.4263462 0.5595 0.4575 13.6521923 0.4575 13.6521923 3.8025 4.23219231 3.8025 4.23219231 15.8117308"></polygon>
            </g>
            <mask id="mask-12" fill="white">
                <use xlink:href="#path-11"></use>
            </mask>
            <g id="Clip-35"></g>
            <polygon id="Fill-34" fill="#F3342F" mask="url(#mask-12)" points="441.189231 34.1215385 444.863077 34.1215385 444.863077 1.15384615 441.189231 1.15384615"></polygon>
            <path d="M455.037,16.6956923 C457.956231,16.6956923 459.698538,15.7541538 459.698538,12.1749231 L459.698538,9.01915385 C459.698538,6.05146154 458.616231,4.49838462 455.883923,4.49838462 L452.304692,4.49838462 L452.304692,16.6956923 L455.037,16.6956923 Z M455.977385,1.15338462 C461.159308,1.15338462 463.326231,3.79107692 463.326231,8.69030769 L463.326231,11.3741538 C463.326231,14.9995385 462.053538,17.2610769 459.227769,18.1564615 C462.241615,19.0506923 463.373538,21.4991538 463.373538,25.0322308 L463.373538,30.1656923 C463.373538,31.6253077 463.419692,32.9914615 464.032385,34.1222308 L460.311231,34.1222308 C459.887769,33.1795385 459.698538,32.3326154 459.698538,30.1183846 L459.698538,24.9387692 C459.698538,21.2176154 457.956231,20.0395385 454.895077,20.0395385 L452.304692,20.0395385 L452.304692,34.1222308 L448.632,34.1222308 L448.632,1.15338462 L455.977385,1.15338462 Z" id="Fill-36" fill="#F3342F" mask="url(#mask-12)"></path>
            <polygon id="Fill-37" fill="#F3342F" mask="url(#mask-12)" points="478.9185 15.7536923 478.9185 19.0502308 470.864654 19.0502308 470.864654 30.7779231 480.755423 30.7779231 480.755423 34.1217692 467.190808 34.1217692 467.190808 1.15407692 480.755423 1.15407692 480.755423 4.49792308 470.864654 4.49792308 470.864654 15.7536923"></polygon>
            <path d="M275.009423,200.325692 L275.009423,144.169154 C277.619423,147.629538 281.2725,151.383 286.099038,153.997615 C292.103654,157.249154 298.592885,158.019923 303.392885,158.019923 C307.515577,158.019923 310.392115,157.451077 310.641346,157.400308 L314.008269,156.711462 L312.745962,153.515308 C312.542885,153.000692 307.649423,140.863385 296.488269,134.818385 C294.042115,133.493769 291.516346,132.581077 289.056346,131.964923 C291.226731,130.677231 293.374038,129.089538 295.329808,127.132615 C304.305577,118.158 305.537885,105.127615 305.586346,104.578385 L305.884038,101.153769 L302.460577,101.453769 C301.910192,101.501077 288.880962,102.733385 279.906346,111.709154 C277.917115,113.698385 276.309808,115.886077 275.009423,118.093385 L275.009423,69.8903077 C305.825192,75.6018462 329.240192,102.661846 329.240192,135.108 C329.240192,167.553 305.825192,194.613 275.009423,200.325692 L275.009423,200.325692 Z M257.562115,201.219923 L257.562115,137.399538 L269.240192,137.399538 L269.240192,201.143769 C267.150577,201.342231 265.035577,201.454154 262.894038,201.454154 C261.0975,201.454154 259.324038,201.360692 257.562115,201.219923 L257.562115,201.219923 Z M196.547885,135.108 C196.547885,113.283 207.143654,93.8914615 223.456731,81.7922308 L223.456731,188.422615 C207.143654,176.323385 196.547885,156.933 196.547885,135.108 L196.547885,135.108 Z M245.519423,71.0856923 C247.573269,70.5272308 249.666346,70.068 251.792885,69.708 L251.792885,200.506846 C249.666346,200.148 247.573269,199.687615 245.519423,199.130308 L245.519423,71.0856923 Z M229.225962,168.359538 L239.750192,168.359538 L239.750192,197.280692 C236.076346,195.908769 232.560577,194.214923 229.225962,192.243 L229.225962,168.359538 Z M239.750192,101.442231 L229.225962,101.442231 L229.225962,77.9718462 C232.560577,75.9999231 236.076346,74.3060769 239.750192,72.9341538 L239.750192,101.442231 Z M229.225962,162.590308 L239.750192,162.590308 L239.750192,107.211462 L229.225962,107.211462 L229.225962,162.590308 Z M276.3375,130.887231 C276.256731,130.893 276.179423,130.898769 276.099808,130.904538 C277.0575,126.888 279.234808,120.539538 283.985192,115.788 C288.755192,111.020308 295.135962,108.841846 299.149038,107.889923 C298.195962,111.903 296.019808,118.284923 291.250962,123.053769 C286.574423,127.730308 280.360962,129.906462 276.3375,130.887231 L276.3375,130.887231 Z M293.739808,139.890692 C299.670577,143.103 303.576346,148.599923 305.633654,152.174538 C301.512115,152.406462 294.775962,152.135308 288.8475,148.924154 C282.936346,145.723385 279.039808,140.254154 276.976731,136.679538 C277.048269,136.663385 277.119808,136.647231 277.1925,136.629923 C281.329038,136.418769 287.919808,136.739538 293.739808,139.890692 L293.739808,139.890692 Z M269.240192,69.0722308 L269.240192,131.630308 L257.562115,131.630308 L257.562115,68.9949231 C259.324038,68.8541538 261.0975,68.7618462 262.894038,68.7618462 C265.035577,68.7618462 267.150577,68.8726154 269.240192,69.0722308 L269.240192,69.0722308 Z M262.894038,62.9926154 C223.130192,62.9926154 190.778654,95.343 190.778654,135.108 C190.778654,174.871846 223.130192,207.223385 262.894038,207.223385 C302.657885,207.223385 335.009423,174.871846 335.009423,135.108 C335.009423,95.343 302.657885,62.9926154 262.894038,62.9926154 L262.894038,62.9926154 Z" id="Fill-38" fill="#B5D34A" mask="url(#mask-12)"></path>
            <polygon id="Fill-39" fill="#B5D34A" mask="url(#mask-12)" points="232.393731 34.4507308 227.354885 34.4507308 222.832962 1.48303846 226.412192 1.48303846 230.274115 29.5526538 233.947962 1.53034615 237.5745 1.53034615 241.201038 29.5999615 244.921038 1.48303846 248.124115 1.48303846 243.6495 34.4507308 238.798731 34.4507308 235.642962 12.0788077"></polygon>
            <path d="M254.439577,26.6802692 C254.439577,29.6941154 255.711115,31.4364231 258.348808,31.4364231 C261.032654,31.4364231 262.256885,29.6941154 262.256885,26.6802692 L262.256885,9.25373077 C262.256885,6.28603846 261.032654,4.49642308 258.348808,4.49642308 C255.711115,4.49642308 254.439577,6.28603846 254.439577,9.25373077 L254.439577,26.6802692 Z M250.813038,9.44296154 C250.813038,4.40296154 253.309962,1.15373077 258.348808,1.15373077 C263.434962,1.15373077 265.930731,4.40296154 265.930731,9.44296154 L265.930731,26.4910385 C265.930731,31.4837308 263.434962,34.7814231 258.348808,34.7814231 C253.309962,34.7814231 250.813038,31.4837308 250.813038,26.4910385 L250.813038,9.44296154 Z" id="Fill-40" fill="#B5D34A" mask="url(#mask-12)"></path>
            <path d="M272.762538,26.6802692 C272.762538,29.6941154 274.034077,31.4364231 276.671769,31.4364231 C279.355615,31.4364231 280.579846,29.6941154 280.579846,26.6802692 L280.579846,9.25373077 C280.579846,6.28603846 279.355615,4.49642308 276.671769,4.49642308 C274.034077,4.49642308 272.762538,6.28603846 272.762538,9.25373077 L272.762538,26.6802692 Z M269.136,9.44296154 C269.136,4.40296154 271.632923,1.15373077 276.671769,1.15373077 C281.757923,1.15373077 284.253692,4.40296154 284.253692,9.44296154 L284.253692,26.4910385 C284.253692,31.4837308 281.757923,34.7814231 276.671769,34.7814231 C271.632923,34.7814231 269.136,31.4837308 269.136,26.4910385 L269.136,9.44296154 Z" id="Fill-41" fill="#B5D34A" mask="url(#mask-12)"></path>
            <path d="M295.419231,31.1064231 C298.056923,31.1064231 299.328462,29.4587308 299.328462,26.4448846 L299.328462,9.49026923 C299.328462,6.47526923 298.056923,4.82757692 295.371923,4.82757692 L291.415385,4.82757692 L291.415385,31.1064231 L295.419231,31.1064231 Z M295.466538,1.48257692 C300.6,1.48257692 302.955,4.59219231 302.955,9.67834615 L302.955,26.3029615 C302.955,31.3418077 300.6,34.4502692 295.466538,34.4502692 L287.742692,34.4502692 L287.742692,1.48257692 L295.466538,1.48257692 Z" id="Fill-42" fill="#B5D34A" mask="url(#mask-12)"></path>
            <path d="M80.6455385,200.886808 C84.3724615,197.934115 87.729,194.167962 90.684,189.597577 C106.069385,165.808731 122.677846,165.047192 130.597846,166.402962 C120.680538,184.861038 102.279,198.095654 80.6455385,200.886808 M12.3793846,163.957962 C18.8097692,167.545269 28.6336154,171.605654 40.1628462,171.605654 C41.1309231,171.605654 42.1151538,171.566423 43.1074615,171.506423 C43.2736154,171.508731 43.4386154,171.519115 43.6059231,171.519115 C43.9843846,171.519115 44.3663077,171.512192 44.7459231,171.4995 L44.7413077,171.380654 C53.8647692,170.516423 63.8524615,166.945269 73.9497692,158.630654 C105.168231,132.922962 130.908231,142.5195 137.593615,145.768731 C137.327077,147.415269 136.992462,149.038731 136.607077,150.643731 C127.758231,147.727962 101.495538,142.572577 74.6270769,171.252577 C58.7836154,188.163346 40.104,187.424885 26.9674615,183.662192 C20.9674615,178.079885 15.9932308,171.410654 12.3793846,163.957962 M44.1482308,165.737192 C29.2509231,166.0395 16.7963077,154.265654 16.2886154,139.326808 C16.0959231,133.641808 18.129,128.219885 22.014,124.062577 C25.8978462,119.904115 31.1697692,117.508731 36.8559231,117.316038 C41.2497692,117.161423 45.4416923,118.738731 48.6551538,121.739885 C51.8686154,124.743346 53.7205385,128.816423 53.8693846,133.212577 C53.9847692,136.574885 52.7824615,139.780269 50.4851538,142.239115 C48.189,144.696808 45.0713077,146.112577 41.709,146.226808 C39.1774615,146.343346 36.7555385,145.406423 34.9024615,143.6745 C33.0482308,141.942577 31.9797692,139.592192 31.8943846,137.056038 C31.7628462,133.186038 34.8032308,129.931038 38.6732308,129.800654 C41.4447692,129.730269 43.7893846,131.889115 43.8828462,134.666423 C43.8828462,134.666423 47.0051538,130.587577 41.7170769,126.069115 C37.9878462,122.882192 32.0674615,125.416038 29.1009231,128.642192 C28.9993846,128.763346 28.8897692,128.878731 28.7928462,129.003346 C28.7847692,129.013731 28.7778462,129.022962 28.7697692,129.032192 C28.2366923,129.674885 27.7924615,130.367192 27.4763077,131.091808 C27.4705385,131.105654 27.4613077,131.120654 27.4555385,131.135654 C26.5393846,132.974885 26.0536154,135.058731 26.1274615,137.252192 C26.4136154,145.667192 33.5016923,152.267192 41.9051538,151.993731 C46.8078462,151.826423 51.3516923,149.761038 54.7013077,146.177192 C55.9855385,144.802962 57.0297692,143.266038 57.8270769,141.618346 C61.1836154,147.287192 66.819,150.969115 73.0047692,152.017962 C72.1001538,152.713731 71.1932308,153.426808 70.2816923,154.177962 C61.1882308,161.666423 52.269,164.916808 44.1482308,165.737192 M72.1151538,68.7610385 C108.699,68.7610385 138.461308,98.5233462 138.461308,135.107192 C138.461308,136.694885 138.386308,138.265269 138.275538,139.824115 C129.804,136.3545 108.695538,130.623346 83.3120769,145.126038 L83.3086154,145.117962 C75.2305385,148.799885 65.6616923,145.227577 61.9763077,137.151808 C60.6124615,134.161038 60.4947692,130.817192 61.6451538,127.738731 C62.7955385,124.660269 65.0743846,122.212962 68.0651538,120.850269 C70.3174615,119.822192 72.8328462,119.733346 75.1532308,120.599885 C77.4724615,121.466423 79.314,123.183346 80.3420769,125.4345 C81.1001538,127.097192 81.1647692,128.953731 80.5255385,130.664885 C79.8874615,132.374885 78.6205385,133.734115 76.959,134.492192 C75.7705385,135.035654 74.4424615,135.081808 73.2170769,134.623731 C71.9928462,134.166808 71.0201538,133.261038 70.4778462,132.070269 C69.714,130.397192 70.4547692,128.413731 72.129,127.649885 C72.129,127.649885 67.4778462,126.069115 66.2363077,130.972962 C65.2255385,134.962962 67.3901538,138.506423 71.1978462,140.028346 C73.8666923,141.026423 76.7628462,140.921423 79.3532308,139.741038 C82.4166923,138.343731 84.7520769,135.837577 85.9313077,132.684115 C87.1093846,129.528346 86.9882308,126.103731 85.5909231,123.041423 C83.9236154,119.387192 80.934,116.600654 77.1724615,115.195269 C73.4086154,113.789885 69.3251538,113.934115 65.6709231,115.601423 C61.9797692,117.284885 59.0397692,120.101423 57.1878462,123.637962 C56.0305385,121.382192 54.5016923,119.307577 52.5943846,117.524885 C48.2547692,113.470269 42.5893846,111.359885 36.6597692,111.549115 C29.4332308,111.794885 22.7351538,114.839885 17.7978462,120.123346 C12.8616923,125.406808 10.2782308,132.297577 10.5228462,139.522962 C10.8136154,148.067192 14.3351538,155.747192 19.8666923,161.443731 C14.1816923,158.8695 10.2228462,155.924885 8.73323077,154.732962 C6.80861538,148.528731 5.769,141.936808 5.769,135.107192 C5.769,98.5233462 35.5324615,68.7610385 72.1151538,68.7610385 M68.034,201.316038 C56.7413077,200.626038 46.2078462,197.103346 37.1293846,191.443731 C38.7713077,191.593731 40.4455385,191.680269 42.1520769,191.680269 C53.9397692,191.680269 67.0636154,187.762962 78.8363077,175.196423 C104.259,148.062577 127.923231,153.583731 135.025154,156.138346 C134.459769,157.826423 133.841308,159.489115 133.145538,161.113731 C124.228615,159.2595 103.723615,158.812962 85.8401538,186.464885 C80.9951538,193.9545 75.0078462,198.942577 68.034,201.316038 M72.1151538,62.9918077 C32.3513077,62.9918077 -0.000230769231,95.3421923 -0.000230769231,135.107192 C-0.000230769231,173.720654 30.5051538,205.336038 68.6813077,207.136038 L68.6916923,207.1695 C68.724,207.160269 68.7551538,207.148731 68.7874615,207.138346 C69.8916923,207.189115 70.9993846,207.222577 72.1151538,207.222577 C111.880154,207.222577 144.230538,174.872192 144.230538,135.107192 C144.230538,95.3421923 111.880154,62.9918077 72.1151538,62.9918077" id="Fill-43" fill="#5AD0E7" mask="url(#mask-12)"></path>
            <polygon id="Fill-44" fill="#5AD0E7" mask="url(#mask-12)" points="33.2307692 34.1216538 28.1919231 34.1216538 23.67 1.15396154 27.2492308 1.15396154 31.1111538 29.2235769 34.785 1.20126923 38.4115385 1.20126923 42.0380769 29.2708846 45.7580769 1.15396154 48.9611538 1.15396154 44.4865385 34.1216538 39.6357692 34.1216538 36.48 11.7508846"></polygon>
            <path d="M55.4180769,24.3252692 L62.7646154,24.3252692 L59.0446154,5.29834615 L55.4180769,24.3252692 Z M54.9473077,27.4810385 L53.6757692,34.1214231 L50.2846154,34.1214231 L56.595,1.15373077 L61.9176923,1.15373077 L68.2280769,34.1214231 L64.5542308,34.1214231 L63.2826923,27.4810385 L54.9473077,27.4810385 Z" id="Fill-45" fill="#5AD0E7" mask="url(#mask-12)"></path>
            <polygon id="Fill-46" fill="#5AD0E7" mask="url(#mask-12)" points="75.9078462 34.1216538 75.9078462 4.49780769 69.8328462 4.49780769 69.8328462 1.15396154 85.6566923 1.15396154 85.6566923 4.49780769 79.5816923 4.49780769 79.5816923 34.1216538"></polygon>
            <polygon id="Fill-47" fill="#5AD0E7" mask="url(#mask-12)" points="99.9301154 15.7536923 99.9301154 19.0502308 91.8762692 19.0502308 91.8762692 30.7779231 101.767038 30.7779231 101.767038 34.1217692 88.2024231 34.1217692 88.2024231 1.15407692 101.767038 1.15407692 101.767038 4.49792308 91.8762692 4.49792308 91.8762692 15.7536923"></polygon>
            <path d="M111.564346,16.6956923 C114.484731,16.6956923 116.227038,15.7541538 116.227038,12.1749231 L116.227038,9.01915385 C116.227038,6.05146154 115.144731,4.49838462 112.412423,4.49838462 L108.833192,4.49838462 L108.833192,16.6956923 L111.564346,16.6956923 Z M112.505885,1.15338462 C117.687808,1.15338462 119.853577,3.79107692 119.853577,8.68915385 L119.853577,11.3741538 C119.853577,15.0006923 118.582038,17.2610769 115.756269,18.1564615 C118.770115,19.0506923 119.900885,21.4991538 119.900885,25.0322308 L119.900885,30.1656923 C119.900885,31.6253077 119.948192,32.9914615 120.559731,34.1222308 L116.839731,34.1222308 C116.416269,33.1795385 116.227038,32.3326154 116.227038,30.1183846 L116.227038,24.9387692 C116.227038,21.2176154 114.484731,20.0395385 111.423577,20.0395385 L108.833192,20.0395385 L108.833192,34.1222308 L105.159346,34.1222308 L105.159346,1.15338462 L112.505885,1.15338462 Z" id="Fill-48" fill="#5AD0E7" mask="url(#mask-12)"></path>
        </g>
    </g>
</svg>