<?xml version="1.0" standalone="no"?>
<!DOCTYPE svg PUBLIC "-//W3C//DTD SVG 20010904//EN"
 "http://www.w3.org/TR/2001/REC-SVG-20010904/DTD/svg10.dtd">
<svg version="1.0" xmlns="http://www.w3.org/2000/svg"
 width="968.000000pt" height="968.000000pt" viewBox="0 0 968.000000 968.000000"
 preserveAspectRatio="xMidYMid meet">
<metadata>
Created by potrace 1.14, written by Peter Selinger 2001-2017
</metadata>
<g transform="translate(0.000000,968.000000) scale(0.100000,-0.100000)"
fill="#000000" stroke="none">
<path d="M8251 9646 c-1 -4 13 -28 29 -53 17 -24 30 -48 30 -53 0 -4 4 -10 8
-12 5 -1 23 -30 42 -63 18 -33 36 -62 40 -65 3 -3 11 -16 17 -30 7 -14 24 -45
38 -70 49 -85 59 -105 57 -112 -1 -5 2 -8 7 -8 5 0 15 -15 22 -32 7 -18 28
-59 46 -90 17 -32 30 -58 27 -58 -2 0 7 -18 20 -39 14 -21 22 -42 19 -45 -4
-3 0 -6 7 -6 7 0 10 -3 7 -6 -4 -4 0 -19 8 -33 14 -25 118 -266 130 -301 2 -6
20 -51 38 -95 6 -16 12 -32 13 -35 0 -3 3 -12 6 -20 4 -8 9 -24 14 -35 4 -11
8 -22 9 -25 0 -3 12 -36 25 -75 13 -38 25 -74 26 -80 1 -5 12 -39 24 -75 12
-36 23 -74 25 -85 2 -11 13 -51 25 -90 11 -38 22 -79 25 -90 2 -11 14 -58 26
-105 11 -47 22 -97 24 -111 1 -15 5 -31 8 -36 6 -10 18 -80 20 -115 1 -10 4
-18 7 -18 3 0 7 -12 8 -27 1 -16 4 -39 7 -53 3 -14 7 -38 10 -55 3 -16 7 -43
10 -60 3 -16 8 -46 10 -65 3 -19 8 -51 11 -70 3 -19 8 -54 10 -77 2 -24 6 -64
10 -90 24 -209 28 -307 28 -673 -1 -391 -3 -436 -30 -675 -14 -123 -32 -259
-40 -298 -3 -16 -7 -38 -9 -50 -2 -12 -6 -33 -9 -47 -4 -14 -9 -42 -12 -63 -8
-49 -12 -72 -14 -72 -1 0 -3 -11 -5 -25 -4 -31 -14 -79 -21 -102 -3 -9 -7 -25
-9 -35 -9 -45 -27 -116 -54 -215 -16 -60 -26 -108 -23 -108 4 0 2 -4 -5 -8 -7
-4 -14 -21 -17 -37 -3 -17 -15 -57 -26 -90 -11 -33 -21 -62 -22 -65 -1 -9 -8
-29 -15 -47 -3 -10 -7 -25 -9 -33 -2 -8 -9 -30 -18 -50 -8 -19 -31 -80 -51
-135 -38 -102 -42 -112 -92 -225 -15 -36 -28 -67 -28 -70 -2 -23 -194 -400
-280 -550 -21 -36 -44 -77 -52 -92 -8 -16 -19 -28 -24 -28 -5 0 -9 -6 -9 -12
0 -11 -92 -161 -117 -193 -5 -5 -25 -35 -46 -65 -20 -30 -45 -66 -54 -80 -10
-14 -26 -37 -38 -51 -11 -15 -29 -39 -40 -54 -43 -60 -139 -180 -147 -183 -4
-2 -8 -8 -8 -12 0 -5 -12 -22 -27 -38 -16 -16 -37 -40 -48 -54 -70 -90 -357
-388 -475 -494 -48 -43 -80 -70 -209 -181 -47 -41 -50 -43 -60 -43 -5 0 -11
-4 -13 -9 -4 -10 -136 -114 -166 -130 -11 -6 -26 -17 -34 -24 -21 -22 -117
-87 -127 -87 -5 0 -11 -4 -13 -9 -4 -12 -192 -131 -206 -131 -7 0 -12 -4 -12
-8 0 -9 -94 -62 -109 -62 -9 0 -5 99 4 108 2 3 0 13 -6 23 -5 11 -6 19 -1 19
10 0 8 42 -3 59 -3 6 -2 11 4 11 12 0 -9 79 -37 142 -45 98 -154 184 -245 194
-90 10 -104 10 -172 -3 -68 -13 -240 -64 -280 -84 -12 -6 -27 -11 -35 -13 -8
-1 -25 -7 -37 -14 -12 -7 -29 -12 -37 -12 -9 0 -16 -4 -16 -8 0 -5 -6 -9 -12
-9 -7 0 -60 -19 -118 -42 -57 -24 -112 -43 -122 -44 -10 -1 -18 -4 -18 -7 0
-10 -98 -32 -109 -26 -5 4 -12 2 -15 -3 -5 -8 -104 -7 -112 2 -2 2 16 34 41
73 24 38 50 80 58 94 8 14 37 64 65 112 73 124 130 239 177 353 8 19 13 42 17
73 1 6 4 12 7 12 13 0 -2 241 -24 380 -6 41 -15 110 -20 160 -2 19 -4 35 -5
35 -1 0 -4 18 -5 40 -2 22 -4 40 -5 40 -3 0 -12 66 -24 177 -2 20 -7 45 -10
55 -3 10 -8 43 -11 73 -3 30 -10 71 -15 90 -5 19 -11 53 -14 75 -2 22 -7 51
-10 65 -3 14 -8 41 -10 60 -2 19 -6 42 -9 50 -3 8 -11 49 -18 90 -26 155 -29
169 -46 230 -52 189 -92 252 -190 297 -48 22 -74 26 -248 39 -86 6 -139 12
-145 15 -3 1 -9 3 -15 4 -61 10 -162 98 -215 186 -65 109 -70 127 -65 253 3
73 8 122 15 126 7 4 11 11 11 16 -1 5 6 17 14 27 8 9 15 21 15 26 0 5 11 33
25 62 24 52 24 53 34 26 12 -31 40 -27 42 7 1 11 3 46 5 76 3 30 5 62 5 70 0
8 14 45 30 82 42 93 43 127 4 147 -16 9 -32 17 -34 18 -2 2 -5 33 -7 70 -4
125 -24 213 -67 303 -12 24 -26 49 -32 56 -5 6 -19 23 -30 38 -11 16 -39 46
-62 68 l-42 40 2 77 c1 66 -2 84 -27 136 -63 130 -165 178 -316 150 -19 -4
-37 -11 -38 -16 -2 -5 -9 -9 -17 -9 -18 0 -93 -85 -101 -114 -3 -14 -9 -26
-13 -26 -10 0 -11 -10 -16 -100 -2 -41 1 -82 5 -91 7 -13 -2 -29 -40 -70 -27
-30 -52 -62 -55 -71 -4 -10 -10 -18 -15 -18 -5 0 -14 -16 -21 -35 -7 -19 -17
-35 -21 -35 -4 0 -7 -3 -7 -7 1 -5 0 -11 -1 -15 -1 -5 -4 -12 -5 -18 -1 -5 -4
-12 -5 -15 -3 -7 -4 -11 -18 -75 -17 -80 -20 -108 -21 -172 -1 -45 -4 -58 -16
-58 -24 0 -65 -49 -58 -68 3 -9 14 -35 23 -57 41 -92 47 -113 49 -165 1 -30 4
-64 6 -75 2 -11 4 -26 4 -32 1 -21 29 -15 36 8 5 16 9 18 21 8 8 -6 13 -14 10
-16 -5 -5 33 -95 43 -103 16 -13 41 -71 40 -91 -1 -13 1 -58 5 -99 6 -59 4
-86 -9 -125 -32 -94 -129 -221 -205 -270 -49 -31 -95 -41 -240 -50 -224 -13
-251 -26 -374 -170 -14 -16 -26 -34 -26 -39 0 -5 -6 -17 -14 -25 -16 -19 -43
-102 -50 -156 -14 -106 -17 -134 -21 -185 -2 -30 -5 -73 -8 -95 -7 -51 -19
-166 -23 -225 -1 -25 -5 -79 -8 -120 -19 -245 -28 -406 -30 -497 0 -46 -4 -83
-8 -83 -4 0 -3 -11 2 -24 5 -13 6 -27 2 -30 -13 -13 -10 -290 4 -328 7 -21 11
-38 9 -38 -13 0 128 -262 163 -302 8 -10 11 -18 7 -18 -4 0 -1 -8 7 -17 19
-23 205 -324 214 -346 5 -15 1 -16 -32 -10 -22 3 -49 7 -61 7 -13 1 -23 4 -23
7 0 7 -120 35 -132 31 -5 -1 -8 2 -8 8 0 5 -8 10 -18 10 -28 0 -259 77 -287
96 -14 9 -25 14 -25 10 0 -6 -80 33 -90 43 -3 4 -21 14 -40 25 -19 10 -62 33
-95 50 -70 37 -130 56 -200 61 -27 2 -50 4 -50 5 0 6 -58 4 -61 -2 -3 -5 -12
-4 -21 0 -9 5 -35 2 -67 -9 -142 -46 -215 -116 -256 -243 -11 -35 -15 -204 -6
-261 9 -59 19 -96 27 -101 5 -3 9 -14 9 -24 0 -10 3 -20 8 -22 12 -5 44 -68
34 -68 -6 0 -39 16 -74 36 -34 20 -92 52 -128 72 -36 19 -77 43 -92 54 -14 10
-29 18 -33 18 -3 0 -33 18 -65 40 -32 22 -63 40 -69 40 -5 0 -11 3 -13 8 -1 4
-26 22 -54 40 -28 18 -62 41 -74 52 -13 11 -26 20 -31 20 -4 0 -30 18 -58 40
-28 22 -55 40 -60 40 -5 0 -11 3 -13 8 -2 4 -41 37 -88 73 -47 37 -96 76 -110
88 -14 11 -41 34 -60 50 -167 141 -286 255 -501 481 l-82 85 54 -78 c29 -43
60 -85 69 -95 8 -9 27 -33 40 -52 13 -19 30 -41 37 -48 7 -7 13 -16 13 -20 0
-4 17 -26 38 -49 20 -23 47 -54 59 -70 24 -30 53 -63 136 -158 94 -108 507
-513 507 -498 0 2 18 -12 39 -32 22 -20 54 -47 72 -61 18 -13 35 -27 38 -32 3
-4 58 -46 121 -92 63 -47 117 -88 118 -92 2 -5 10 -8 18 -8 8 0 14 -4 14 -10
0 -5 7 -10 15 -10 8 0 15 -4 15 -8 0 -5 12 -15 27 -23 16 -8 37 -22 47 -31 11
-10 25 -18 32 -18 7 0 14 -4 16 -8 3 -8 104 -72 114 -72 2 0 14 -9 26 -20 11
-10 36 -26 54 -35 19 -9 67 -35 107 -59 40 -24 83 -47 95 -50 12 -4 22 -12 22
-17 0 -5 9 -9 20 -9 11 0 20 -5 20 -10 0 -6 3 -9 8 -8 4 1 59 -24 122 -54 109
-54 209 -100 220 -102 3 -1 40 -16 82 -34 42 -17 84 -32 92 -32 9 0 16 -5 16
-12 0 -6 3 -9 6 -5 4 3 19 0 35 -8 15 -8 36 -16 46 -18 10 -1 23 -5 28 -8 6
-4 51 -19 100 -34 97 -29 113 -34 120 -36 2 0 39 -12 81 -25 42 -13 81 -21 85
-18 5 3 9 0 9 -7 0 -6 8 -9 20 -6 11 3 23 1 26 -4 3 -5 15 -9 28 -9 12 0 26
-3 30 -7 3 -4 14 -8 24 -9 24 -4 132 -24 162 -31 48 -12 55 -13 90 -18 19 -3
46 -7 60 -10 30 -7 57 -11 131 -19 31 -4 65 -8 76 -10 23 -5 137 -17 213 -22
30 -3 119 -5 197 -7 79 -1 143 -6 143 -10 0 -5 4 -5 10 -2 5 3 85 8 177 10 93
1 168 4 168 5 0 1 29 3 65 5 36 1 65 4 65 5 0 1 23 3 50 5 28 1 50 3 50 4 0 2
18 4 40 6 75 8 110 13 205 30 52 9 109 18 125 20 17 2 62 11 100 20 39 9 81
18 95 21 14 3 43 10 65 16 22 5 47 11 55 13 8 2 44 11 80 20 36 9 70 18 75 20
6 1 17 5 25 8 56 21 276 91 283 89 4 -1 7 2 7 6 0 5 6 9 13 9 6 0 73 24 147
54 74 29 138 52 143 51 4 -1 7 2 7 7 0 8 34 21 54 20 5 -1 12 3 15 8 3 4 83
46 176 93 173 86 387 207 393 222 2 4 9 8 15 8 17 0 227 141 227 153 0 6 3 8
6 4 5 -5 64 32 84 53 3 3 16 13 30 21 27 17 224 172 252 198 9 9 23 21 30 26
117 94 439 408 543 530 32 39 66 77 75 86 8 9 29 34 47 55 17 22 39 49 50 61
45 53 53 64 53 73 0 6 4 10 9 10 4 0 21 19 37 42 16 23 35 49 42 58 28 33 89
116 95 130 4 8 23 35 42 60 20 25 38 53 41 63 4 9 10 17 15 17 5 0 9 6 9 13 0
8 11 27 25 43 14 16 25 32 25 36 0 6 33 59 57 94 5 5 16 26 26 45 38 69 52 94
58 99 7 6 10 11 137 263 56 108 99 197 96 197 -3 0 2 10 10 22 9 12 16 30 16
40 0 10 4 18 8 18 5 0 14 15 20 33 6 17 34 88 62 157 47 114 181 501 194 560
3 14 22 86 41 160 36 137 70 281 79 335 2 17 5 30 6 30 2 0 7 23 14 70 4 23 8
52 11 65 7 36 17 102 20 130 2 14 4 25 5 25 0 0 3 18 6 40 2 22 6 56 8 75 3
19 7 64 11 100 3 36 8 79 10 95 20 149 28 827 12 1000 -10 103 -18 180 -23
230 -3 22 -7 60 -9 85 -2 25 -5 45 -5 45 -1 0 -3 11 -5 25 -6 50 -17 126 -21
145 -2 11 -6 36 -9 55 -2 19 -7 46 -11 60 -3 14 -8 39 -10 57 -6 46 -51 252
-81 368 -14 55 -26 105 -28 110 -1 6 -4 17 -7 25 -5 13 -29 95 -33 110 -1 3
-5 21 -9 40 -5 19 -12 40 -16 45 -4 6 -10 24 -13 40 -3 17 -11 44 -18 60 -7
17 -13 36 -15 43 -1 8 -6 21 -10 30 -4 9 -8 20 -9 25 -2 4 -4 9 -5 12 -1 3 -3
8 -5 13 -1 4 -5 16 -9 27 -4 11 -12 34 -18 50 -5 17 -14 39 -18 50 -5 11 -23
56 -41 100 -17 44 -44 108 -60 142 -15 34 -31 73 -35 87 -3 14 -12 30 -20 37
-8 6 -14 17 -14 24 0 14 -127 267 -191 380 -22 39 -43 78 -46 88 -3 9 -9 17
-13 17 -3 0 -22 29 -41 65 -18 36 -37 65 -41 65 -5 0 -8 4 -8 9 0 10 -118 194
-141 222 -8 9 -18 23 -24 31 -47 73 -80 118 -87 118 -4 0 -8 6 -8 13 0 6 -14
28 -31 47 -17 19 -45 54 -62 78 -17 23 -34 42 -39 42 -4 0 -8 5 -8 10 0 6 -10
21 -22 33 -13 13 -31 34 -40 47 -9 14 -17 21 -17 16z m-5065 -6558 c9 -49 9
-48 17 -68 11 -26 35 -154 44 -230 12 -102 6 -555 -7 -555 -1 0 -4 -13 -6 -30
-2 -16 -7 -46 -11 -65 -3 -19 -7 -38 -7 -42 -4 -31 -35 7 -51 62 -1 3 -7 19
-14 35 -34 78 -72 193 -77 229 -9 67 -6 199 10 376 15 162 58 330 85 330 5 0
13 -19 17 -42z m1661 -127 c14 -53 27 -104 29 -113 2 -10 6 -28 10 -40 3 -13
6 -32 8 -43 2 -11 6 -33 9 -50 4 -16 9 -43 12 -60 3 -16 7 -41 10 -55 3 -14 8
-43 11 -65 2 -21 6 -41 9 -43 2 -2 -3 -21 -10 -43 -8 -21 -12 -39 -8 -39 3 0
1 -6 -5 -12 -6 -7 -13 -30 -17 -51 -4 -20 -11 -40 -16 -43 -5 -3 -9 -14 -9
-25 0 -10 -4 -27 -9 -37 -8 -14 -17 -36 -26 -62 -4 -11 -17 -46 -25 -65 -4
-11 -18 -46 -30 -77 -12 -32 -24 -58 -25 -58 -7 0 -29 122 -40 224 -3 27 -8
52 -10 57 -3 4 -1 10 4 13 4 3 6 23 2 43 -10 59 -2 292 15 418 2 22 6 56 8 75
2 19 6 42 9 50 3 8 8 33 12 55 3 22 7 45 9 50 1 6 7 28 11 50 5 22 10 43 11
48 1 4 2 13 3 20 3 25 25 -29 48 -122z"/>
</g>
</svg>
