<svg width="100" height="100" viewBox="0 0 100 100" fill="none" xmlns="http://www.w3.org/2000/svg">
<rect x="4" y="4" width="92" height="92" rx="46" fill="white" stroke="#A0854F" stroke-width="8"/>
<path fill-rule="evenodd" clip-rule="evenodd" d="M63.3033 79.3121V70.0861L70.2098 63.1796V55.0126L75.7516 48.2181L81.6904 55.6683C79.8093 66.2137 72.7819 74.9928 63.3033 79.3121ZM41.5793 81.0755L71.7616 43.2128L73.9652 45.9775L67.4098 54.0152V62.0204L60.5033 68.9269V80.4321C57.2089 81.5722 53.6781 82.2 50 82.2C47.0869 82.2 44.2656 81.8041 41.5793 81.0755ZM23.1088 67.6814L49.7401 34.273L52.8633 38.1907L43.1433 50.9268V57.7599L33.508 68.2134V77.6427C29.3382 75.1457 25.78 71.7319 23.1088 67.6814ZM33.1166 50.6356L21.5766 65.111C19.8569 61.8888 18.6708 58.3418 18.1326 54.5875L27.199 43.2128L33.1166 50.6356ZM62.5233 50.3097L38.7283 80.1599C37.9051 79.8508 37.0981 79.5086 36.308 79.1362V69.3071L45.9433 58.8536V51.8732L54.6626 40.4486L62.5233 50.3097ZM50 17.8C67.7553 17.8 82.2 32.2446 82.2 50C82.2 50.5886 82.1821 51.1726 82.1507 51.7534L71.7616 38.721L64.3147 48.0635L49.7401 29.7812L34.9069 48.3894L27.199 38.721L17.8129 50.4962C17.8106 50.3304 17.8 50.1663 17.8 50C17.8 32.2446 32.2452 17.8 50 17.8ZM50 15C30.7013 15 15 30.7007 15 50C15 69.2993 30.7013 85 50 85C69.2993 85 85 69.2993 85 50C85 30.7007 69.2993 15 50 15Z" fill="#A0854F"/>
</svg>
