<svg width="100" height="100" viewBox="0 0 100 100" fill="none" xmlns="http://www.w3.org/2000/svg">
<rect x="4" y="4" width="92" height="92" rx="46" fill="white" stroke="#F07470" stroke-width="8"/>
<path fill-rule="evenodd" clip-rule="evenodd" d="M64.0207 78.9822C67.9088 74.9004 70.0726 69.1414 69.5132 62.9903C67.3914 39.6624 46.6137 29.6479 45.73 29.2335L43.3886 28.1337L43.7487 30.6957C45.0782 40.1462 40.8205 45.2988 37.3994 49.4383L36.9609 49.9709C33.2257 54.5136 29.3634 59.2103 30.6542 68.387C31.217 72.3944 32.8573 75.8804 35.2546 78.611C24.8986 73.2523 17.8 62.4432 17.8 50C17.8 32.2446 32.2446 17.8 50 17.8C67.7548 17.8 82.2 32.2446 82.2 50C82.2 62.7322 74.7705 73.7608 64.0207 78.9822ZM59.0126 74.4832C58.3989 78.8428 55.0327 81.8685 50.817 82.1692C50.644 82.1793 50.4726 82.1854 50.3007 82.1905C49.7777 82.1994 49.2457 82.177 48.7025 82.1003C43.7885 81.4087 40.4346 77.0094 40.9028 71.8669C41.7114 62.9741 47.9162 57.6507 51.2729 55.3934C51.4224 60.1825 53.8786 63.1544 55.591 65.2275L55.8425 65.5316C57.9554 68.1014 59.6241 70.1314 59.0126 74.4832ZM46.7744 33.0141C52.0871 36.2486 65.1463 45.8896 66.7244 63.244C67.2754 69.297 64.9296 74.7856 60.7934 78.2794C61.2694 77.2339 61.6127 76.0966 61.7852 74.8735C62.5686 69.3032 60.2486 66.4819 58.0052 63.7536L57.7498 63.4439C55.8425 61.1362 53.4692 58.2639 54.2028 53.0492L54.5629 50.4872L52.2215 51.587C51.6974 51.8334 39.3729 57.7734 38.114 71.6132C37.8754 74.2368 38.4623 76.7383 39.6462 78.8585C36.3606 76.3508 34.0702 72.5725 33.4268 67.9967C32.3073 60.0386 35.4658 56.197 39.1237 51.7489L39.5582 51.2219C42.8163 47.2795 47.1725 42.0088 46.7744 33.0141ZM85 50C85 30.7007 69.2987 15 50 15C30.7007 15 15 30.7007 15 50C15 68.7734 29.8574 84.1359 48.4303 84.9602C48.8609 84.9877 49.2938 85.0056 49.7323 85.0056C49.799 85.0056 49.8678 84.9989 49.9345 84.9983C49.9563 84.9983 49.9782 85 50 85C50.0101 85 50.0207 84.9994 50.0314 84.9994C50.0745 85 50.1193 85.0039 50.1624 85.0039C50.3125 85.0039 50.4581 84.9905 50.6065 84.9849C69.6258 84.6584 85 69.096 85 50Z" fill="#F07470"/>
</svg>
