<svg width="50" height="50" viewBox="0 0 50 50" fill="none" xmlns="http://www.w3.org/2000/svg">
<path fill-rule="evenodd" clip-rule="evenodd" d="M25 4.16699C13.4896 4.16699 4.16669 13.4899 4.16669 25.0003C4.16433 29.3738 5.53922 33.637 8.09631 37.1851C10.6534 40.7331 14.2628 43.3859 18.4125 44.767C19.4542 44.9482 19.8438 44.3232 19.8438 43.7753C19.8438 43.2816 19.8167 41.642 19.8167 39.8962C14.5834 40.8607 13.2292 38.6212 12.8125 37.4482C12.5771 36.8482 11.5625 35.0003 10.6771 34.5045C9.94794 34.1149 8.90627 33.1503 10.65 33.1253C12.2917 33.0982 13.4625 34.6357 13.8542 35.2607C15.7292 38.4107 18.725 37.5253 19.9209 36.9795C20.1042 35.6253 20.65 34.7149 21.25 34.1941C16.6146 33.6732 11.7709 31.8753 11.7709 23.9066C11.7709 21.6399 12.5771 19.767 13.9063 18.3066C13.6979 17.7857 12.9688 15.6503 14.1146 12.7857C14.1146 12.7857 15.8584 12.2399 19.8438 14.9232C21.5397 14.4525 23.292 14.2156 25.0521 14.2191C26.8229 14.2191 28.5938 14.4524 30.2604 14.9212C34.2438 12.2128 35.9896 12.7878 35.9896 12.7878C37.1354 15.6524 36.4063 17.7878 36.1979 18.3087C37.525 19.767 38.3334 21.6149 38.3334 23.9066C38.3334 31.9024 33.4646 33.6732 28.8292 34.1941C29.5834 34.8441 30.2354 36.0941 30.2354 38.0482C30.2354 40.8337 30.2084 43.0732 30.2084 43.7774C30.2084 44.3232 30.6 44.9732 31.6417 44.7649C35.7772 43.3687 39.3707 40.7107 41.9165 37.1652C44.4623 33.6197 45.8322 29.3651 45.8334 25.0003C45.8334 13.4899 36.5104 4.16699 25 4.16699Z" fill="#626D96" fill-opacity="0.5"/>
</svg>
