<svg width="350" height="326" viewBox="0 0 350 326" fill="none" xmlns="http://www.w3.org/2000/svg">
<mask id="path-1-inside-1_65_146" fill="white">
<path d="M298.764 0.444941C298.821 0.616555 299.622 1.81785 300.556 3.11449C303.817 7.65273 308.87 15.9474 312.626 22.9264C315.982 29.1426 320.463 39.1153 322.828 45.6176C327.175 57.5352 329.921 67.6604 332.152 79.9404C333.144 85.3748 333.868 91.0571 334.498 98.0552C334.955 103.413 335.012 104.634 335.012 113.786C335.031 123.797 334.993 124.312 334.173 133.331C333.945 135.696 333.506 139.223 333.125 141.626C332.972 142.56 332.8 143.819 332.724 144.391C332.476 146.508 330.684 155.336 329.502 160.218C328.224 165.48 325.555 174.233 323.533 179.763C313.999 205.848 299.088 229.531 279.734 249.247C268.102 261.108 256.318 270.489 242.074 279.241C238.508 281.434 231.777 285.172 231.644 285.057C231.605 285.019 231.682 284.085 231.796 282.998C231.911 281.911 231.968 279.813 231.93 278.345C231.834 275.905 231.777 275.542 231.224 274.112C229.68 270.184 227.048 267.572 223.368 266.332C221.27 265.627 218.048 265.474 215.474 265.951C212.003 266.58 206.474 268.239 201.821 270.031C196.329 272.129 191.257 273.883 188.397 274.684C187.176 275.008 186.376 275.085 184.431 275.085C183.096 275.066 181.952 275.027 181.895 274.951C181.837 274.894 182.562 273.75 183.496 272.396C189.827 263.319 194.861 254.09 195.357 250.639C195.452 249.934 195.547 248.637 195.547 247.741C195.547 246.177 195.109 241.181 194.88 240.266C194.823 240.018 194.48 237.635 194.117 234.965C193.755 232.295 193.183 228.386 192.878 226.289C192.554 224.191 192.21 221.961 192.115 221.331C191.543 217.403 189.102 204.094 188.683 202.53C188.568 202.149 188.321 200.852 188.111 199.632C187.405 195.551 185.27 189.621 183.973 188.153C182.676 186.703 180.274 185.369 178.081 184.911C177.356 184.758 174.916 184.549 172.666 184.434C168.013 184.205 165.629 183.9 164.047 183.29C161.167 182.203 157.716 178.504 155.695 174.29C154.818 172.498 154.76 171.735 155.142 167.33L155.352 164.889L156.305 163.497C157.239 162.143 158.536 159.321 158.555 158.654C158.555 158.482 158.65 158.273 158.746 158.215C158.86 158.158 158.936 158.234 158.936 158.406C158.936 158.597 159.07 159.035 159.242 159.398C159.508 159.932 159.661 160.027 160.061 159.989C160.767 159.913 161.015 159.035 161.034 156.499C161.053 153.792 161.225 153.048 162.369 151.065C163.417 149.253 163.856 147.709 163.513 147.061C163.227 146.527 162.197 145.916 161.587 145.916H161.091L160.977 143.19C160.786 138.69 159.852 135.257 157.869 131.978C156.858 130.3 154.608 127.859 153.159 126.867C152.263 126.257 152.263 126.257 152.396 125.456C152.491 125.018 152.549 123.835 152.53 122.844C152.53 121.261 152.453 120.861 151.938 119.64C150.375 115.979 147.324 113.786 143.472 113.558C138.057 113.214 133.576 117.066 133.08 122.443C132.985 123.549 133.061 124.369 133.499 126.295C133.576 126.6 133.499 126.886 133.328 127.058C130.048 130.147 128.885 131.672 127.684 134.456C126.501 137.164 125.758 141.035 125.758 144.41V145.859L124.976 145.993C124.48 146.069 123.984 146.317 123.622 146.679C122.745 147.556 122.936 148.3 124.976 152.133C125.567 153.239 125.605 153.429 125.758 156.175C125.853 158.349 125.987 159.188 126.215 159.55C126.387 159.817 126.616 160.027 126.711 160.027C126.921 160.027 127.607 159.15 127.76 158.673C127.931 158.139 128.179 158.234 128.313 158.902C128.484 159.836 129.896 162.677 130.677 163.726L131.402 164.699L131.726 168.283C132.031 171.754 132.031 171.887 131.669 173.051C130.601 176.521 126.463 181.498 123.393 183.004C121.658 183.862 119.751 184.167 114.412 184.434C109.988 184.644 109.016 184.777 107.433 185.369C104.134 186.608 100.111 191.07 98.7952 194.96C98.3185 196.409 98.0707 198.373 96.6787 211.988C95.6109 222.513 94.3905 242.745 94.524 247.836C94.5812 250.162 94.6574 250.696 95.1341 252.031C96.3926 255.597 98.2232 258.648 107.147 271.862C109.683 275.618 110.045 276.248 109.721 276.305C108.482 276.515 95.382 273.101 90.3862 271.29C87.8692 270.375 86.7823 269.86 82.8351 267.762C77.3054 264.788 74.9218 264.101 69.9832 264.082C67.428 264.082 66.6653 264.139 65.3114 264.502C60.6016 265.722 57.5697 268.468 56.0634 272.815C55.8536 273.445 55.7011 274.646 55.6439 276.343C55.4722 280.748 56.1396 284.066 57.7223 286.697C58.2371 287.555 58.8473 288.451 59.0761 288.699C59.2859 288.928 59.4194 289.119 59.3431 289.119C58.8855 289.119 50.4001 284.79 46.3386 282.483C30.245 273.349 16.1917 262.614 3.35878 249.667C1.43289 247.722 -0.0734996 246.234 0.00277335 246.387C0.384138 247.073 4.19778 251.955 6.54317 254.796C12.7022 262.252 18.7659 268.62 26.0309 275.218C45.3851 292.837 69.2967 306.871 94.2951 315.299C102.151 317.95 113.783 321.001 119.847 322.011C120.838 322.183 122.478 322.488 123.489 322.679C125.758 323.117 131.173 323.88 135.769 324.376C148.296 325.768 163.627 325.768 176.193 324.376C191.028 322.755 203.594 320.047 217.095 315.585C226.419 312.516 233.569 309.579 242.36 305.231C260.684 296.174 276.988 284.561 292.185 269.784C295.141 266.904 301.757 259.677 305.113 255.654C320.33 237.406 332.209 216.145 339.913 193.396C342.868 184.682 345.176 175.834 346.854 166.796C349.008 155.126 349.981 144.181 350 131.52C350 122.043 349.485 114.625 348.169 105.015C344.203 76.2602 333.773 48.6113 317.851 24.6425C312.569 16.6911 308.26 11.0469 301.948 3.85815C298.592 0.0254403 298.668 0.101713 298.764 0.444941ZM114.317 221.713C114.317 221.77 114.641 222.99 115.06 224.439C116.796 230.675 117.196 233.325 117.31 239.808C117.425 246.006 117.12 250.029 116.205 254.701C115.671 257.427 115.556 257.828 115.385 257.637C115.175 257.408 113.859 254.586 112.887 252.317C111.151 248.237 110.465 245.986 110.351 244.156C110.179 240.991 110.923 231.895 111.666 228.1C112.334 224.744 113.516 221.617 114.145 221.617C114.241 221.617 114.317 221.655 114.317 221.713ZM174.458 224.706C175.411 227.738 176.479 231.819 177.318 235.728C177.967 238.664 178.767 243.069 178.767 243.66C178.767 244.213 177.394 248.351 176.155 251.554C174.305 256.321 172.399 260.898 172.265 260.898C172.055 260.898 171.331 257.351 170.949 254.51C169.996 247.111 170.568 235.938 172.265 228.577C172.99 225.469 173.676 222.952 173.791 222.952C173.867 222.952 174.153 223.753 174.458 224.706Z"/>
</mask>
<path d="M298.764 0.444941C298.821 0.616555 299.622 1.81785 300.556 3.11449C303.817 7.65273 308.87 15.9474 312.626 22.9264C315.982 29.1426 320.463 39.1153 322.828 45.6176C327.175 57.5352 329.921 67.6604 332.152 79.9404C333.144 85.3748 333.868 91.0571 334.498 98.0552C334.955 103.413 335.012 104.634 335.012 113.786C335.031 123.797 334.993 124.312 334.173 133.331C333.945 135.696 333.506 139.223 333.125 141.626C332.972 142.56 332.8 143.819 332.724 144.391C332.476 146.508 330.684 155.336 329.502 160.218C328.224 165.48 325.555 174.233 323.533 179.763C313.999 205.848 299.088 229.531 279.734 249.247C268.102 261.108 256.318 270.489 242.074 279.241C238.508 281.434 231.777 285.172 231.644 285.057C231.605 285.019 231.682 284.085 231.796 282.998C231.911 281.911 231.968 279.813 231.93 278.345C231.834 275.905 231.777 275.542 231.224 274.112C229.68 270.184 227.048 267.572 223.368 266.332C221.27 265.627 218.048 265.474 215.474 265.951C212.003 266.58 206.474 268.239 201.821 270.031C196.329 272.129 191.257 273.883 188.397 274.684C187.176 275.008 186.376 275.085 184.431 275.085C183.096 275.066 181.952 275.027 181.895 274.951C181.837 274.894 182.562 273.75 183.496 272.396C189.827 263.319 194.861 254.09 195.357 250.639C195.452 249.934 195.547 248.637 195.547 247.741C195.547 246.177 195.109 241.181 194.88 240.266C194.823 240.018 194.48 237.635 194.117 234.965C193.755 232.295 193.183 228.386 192.878 226.289C192.554 224.191 192.21 221.961 192.115 221.331C191.543 217.403 189.102 204.094 188.683 202.53C188.568 202.149 188.321 200.852 188.111 199.632C187.405 195.551 185.27 189.621 183.973 188.153C182.676 186.703 180.274 185.369 178.081 184.911C177.356 184.758 174.916 184.549 172.666 184.434C168.013 184.205 165.629 183.9 164.047 183.29C161.167 182.203 157.716 178.504 155.695 174.29C154.818 172.498 154.76 171.735 155.142 167.33L155.352 164.889L156.305 163.497C157.239 162.143 158.536 159.321 158.555 158.654C158.555 158.482 158.65 158.273 158.746 158.215C158.86 158.158 158.936 158.234 158.936 158.406C158.936 158.597 159.07 159.035 159.242 159.398C159.508 159.932 159.661 160.027 160.061 159.989C160.767 159.913 161.015 159.035 161.034 156.499C161.053 153.792 161.225 153.048 162.369 151.065C163.417 149.253 163.856 147.709 163.513 147.061C163.227 146.527 162.197 145.916 161.587 145.916H161.091L160.977 143.19C160.786 138.69 159.852 135.257 157.869 131.978C156.858 130.3 154.608 127.859 153.159 126.867C152.263 126.257 152.263 126.257 152.396 125.456C152.491 125.018 152.549 123.835 152.53 122.844C152.53 121.261 152.453 120.861 151.938 119.64C150.375 115.979 147.324 113.786 143.472 113.558C138.057 113.214 133.576 117.066 133.08 122.443C132.985 123.549 133.061 124.369 133.499 126.295C133.576 126.6 133.499 126.886 133.328 127.058C130.048 130.147 128.885 131.672 127.684 134.456C126.501 137.164 125.758 141.035 125.758 144.41V145.859L124.976 145.993C124.48 146.069 123.984 146.317 123.622 146.679C122.745 147.556 122.936 148.3 124.976 152.133C125.567 153.239 125.605 153.429 125.758 156.175C125.853 158.349 125.987 159.188 126.215 159.55C126.387 159.817 126.616 160.027 126.711 160.027C126.921 160.027 127.607 159.15 127.76 158.673C127.931 158.139 128.179 158.234 128.313 158.902C128.484 159.836 129.896 162.677 130.677 163.726L131.402 164.699L131.726 168.283C132.031 171.754 132.031 171.887 131.669 173.051C130.601 176.521 126.463 181.498 123.393 183.004C121.658 183.862 119.751 184.167 114.412 184.434C109.988 184.644 109.016 184.777 107.433 185.369C104.134 186.608 100.111 191.07 98.7952 194.96C98.3185 196.409 98.0707 198.373 96.6787 211.988C95.6109 222.513 94.3905 242.745 94.524 247.836C94.5812 250.162 94.6574 250.696 95.1341 252.031C96.3926 255.597 98.2232 258.648 107.147 271.862C109.683 275.618 110.045 276.248 109.721 276.305C108.482 276.515 95.382 273.101 90.3862 271.29C87.8692 270.375 86.7823 269.86 82.8351 267.762C77.3054 264.788 74.9218 264.101 69.9832 264.082C67.428 264.082 66.6653 264.139 65.3114 264.502C60.6016 265.722 57.5697 268.468 56.0634 272.815C55.8536 273.445 55.7011 274.646 55.6439 276.343C55.4722 280.748 56.1396 284.066 57.7223 286.697C58.2371 287.555 58.8473 288.451 59.0761 288.699C59.2859 288.928 59.4194 289.119 59.3431 289.119C58.8855 289.119 50.4001 284.79 46.3386 282.483C30.245 273.349 16.1917 262.614 3.35878 249.667C1.43289 247.722 -0.0734996 246.234 0.00277335 246.387C0.384138 247.073 4.19778 251.955 6.54317 254.796C12.7022 262.252 18.7659 268.62 26.0309 275.218C45.3851 292.837 69.2967 306.871 94.2951 315.299C102.151 317.95 113.783 321.001 119.847 322.011C120.838 322.183 122.478 322.488 123.489 322.679C125.758 323.117 131.173 323.88 135.769 324.376C148.296 325.768 163.627 325.768 176.193 324.376C191.028 322.755 203.594 320.047 217.095 315.585C226.419 312.516 233.569 309.579 242.36 305.231C260.684 296.174 276.988 284.561 292.185 269.784C295.141 266.904 301.757 259.677 305.113 255.654C320.33 237.406 332.209 216.145 339.913 193.396C342.868 184.682 345.176 175.834 346.854 166.796C349.008 155.126 349.981 144.181 350 131.52C350 122.043 349.485 114.625 348.169 105.015C344.203 76.2602 333.773 48.6113 317.851 24.6425C312.569 16.6911 308.26 11.0469 301.948 3.85815C298.592 0.0254403 298.668 0.101713 298.764 0.444941ZM114.317 221.713C114.317 221.77 114.641 222.99 115.06 224.439C116.796 230.675 117.196 233.325 117.31 239.808C117.425 246.006 117.12 250.029 116.205 254.701C115.671 257.427 115.556 257.828 115.385 257.637C115.175 257.408 113.859 254.586 112.887 252.317C111.151 248.237 110.465 245.986 110.351 244.156C110.179 240.991 110.923 231.895 111.666 228.1C112.334 224.744 113.516 221.617 114.145 221.617C114.241 221.617 114.317 221.655 114.317 221.713ZM174.458 224.706C175.411 227.738 176.479 231.819 177.318 235.728C177.967 238.664 178.767 243.069 178.767 243.66C178.767 244.213 177.394 248.351 176.155 251.554C174.305 256.321 172.399 260.898 172.265 260.898C172.055 260.898 171.331 257.351 170.949 254.51C169.996 247.111 170.568 235.938 172.265 228.577C172.99 225.469 173.676 222.952 173.791 222.952C173.867 222.952 174.153 223.753 174.458 224.706Z" stroke="#626D96" stroke-opacity="0.4" stroke-width="2" mask="url(#path-1-inside-1_65_146)"/>
</svg>
