<svg width="100" height="100" viewBox="0 0 100 100" fill="none" xmlns="http://www.w3.org/2000/svg">
<rect x="4" y="4" width="92" height="92" rx="46" fill="white" stroke="#959595" stroke-width="8"/>
<path fill-rule="evenodd" clip-rule="evenodd" d="M51.4 82.1647C68.508 81.4289 82.2 67.2866 82.2 50C82.2 32.7145 68.508 18.5717 51.4 17.8358V26.0281C53.5857 26.0561 58.0858 26.2274 63.7245 27.0781L64.8731 27.2511L64.9145 28.407C64.9263 28.655 65.2455 33.6816 70.813 35.4753L71.8355 35.8051L71.0437 51.6486C71.0157 52.3324 70.1326 68.5847 51.4 77.9233V82.1647ZM17.8 50C17.8 67.2866 31.4926 81.4289 48.6 82.1647V77.9233C29.8674 68.5847 28.9843 52.3324 28.9558 51.6346L28.1645 35.8051L29.1871 35.4753C34.8341 33.6564 35.0833 28.4641 35.0855 28.4126L35.127 27.2511L36.2755 27.0781C41.9142 26.2269 46.4143 26.0555 48.6 26.0275V17.8358C31.4926 18.5717 17.8 32.7145 17.8 50ZM68.4599 47.2577L68.9342 37.7674C64.0527 35.753 62.6639 31.7082 62.2702 29.6961C57.3455 29.0101 53.3762 28.8583 51.4 28.8298V41.6482C54.2521 42.2059 56.5128 44.4269 57.1283 47.2577H68.4599ZM51.4 55.9679V74.7744C67.4653 66.0675 68.2403 51.6722 68.2465 51.5221L68.3199 50.0577H57.1826C56.6663 53.0307 54.3518 55.3911 51.4 55.9679ZM42.841 50.2083H31.688L31.753 51.5086C31.781 52.1336 32.603 66.1297 48.6 74.7761V55.9679C45.6975 55.4012 43.4077 53.1102 42.841 50.2083ZM50 53.3057C52.4803 53.3057 54.4974 51.288 54.4974 48.8083C54.4974 46.3281 52.4803 44.3104 50 44.3104C47.5203 44.3104 45.5027 46.3281 45.5027 48.8083C45.5027 51.288 47.5203 53.3057 50 53.3057ZM31.0659 37.7674L31.548 47.4083H42.841C43.4077 44.5058 45.6975 42.2154 48.6 41.6482V28.8298C46.6238 28.8583 42.6551 29.0101 37.7299 29.6961C37.3362 31.7082 35.9474 35.7536 31.0659 37.7674ZM50 15C69.2993 15 85 30.7013 85 50C85 69.2993 69.2993 85 50 85C30.7013 85 15 69.2993 15 50C15 30.7013 30.7013 15 50 15Z" fill="#959595"/>
</svg>
