<svg width="51" height="50" viewBox="0 0 51 50" fill="none" xmlns="http://www.w3.org/2000/svg">
<path d="M3.00804 25.7593C2.81256 20.1608 4.72228 14.6924 8.36044 10.4327C11.9986 6.17308 17.101 3.43152 22.6612 2.74889M47.783 24.5864C47.8809 30.1876 45.8761 35.6221 42.164 39.8178C38.452 44.0134 33.3023 46.6656 27.731 47.251M5.65804 30.1562L30.3778 5.47702C30.5229 5.34051 30.7162 5.26704 30.9153 5.2727C31.1144 5.27836 31.3032 5.36269 31.4403 5.50723L45.1851 19.2729C45.3294 19.4102 45.4133 19.5992 45.4186 19.7983C45.4239 19.9974 45.35 20.1905 45.2132 20.3354L20.4924 45.0145C20.3473 45.1514 20.1538 45.225 19.9544 45.2194C19.755 45.2137 19.566 45.1292 19.4289 44.9843L5.68616 31.2187C5.54191 31.0813 5.45796 30.8924 5.45269 30.6932C5.44742 30.4941 5.52126 30.301 5.65804 30.1562V30.1562Z" stroke="#28456B" stroke-width="2" stroke-linecap="round" stroke-linejoin="round"/>
<path d="M3.00806 25.7594L9.68722 19.3115L5.02264 15.6657M47.7831 24.5865L41.3622 31.5355L45.4581 34.9209" stroke="#28456B" stroke-width="2" stroke-linecap="round" stroke-linejoin="round"/>
<circle cx="15.5" cy="35.5" r="1.5" transform="rotate(-90 15.5 35.5)" fill="#28456B"/>
</svg>
