<svg width="319" height="305" viewBox="0 0 319 305" fill="none" xmlns="http://www.w3.org/2000/svg">
<circle cx="161" cy="160" r="109" stroke="#79BEF5" stroke-opacity="0.4" stroke-width="2" stroke-dasharray="20 20"/>
<path d="M159.165 102.739L172.62 144.15L172.845 144.841H173.571H217.114L181.887 170.434L181.299 170.861L181.524 171.552L194.979 212.963L159.753 187.37L159.165 186.943L158.577 187.37L123.351 212.963L136.806 171.552L137.031 170.861L136.443 170.434L101.217 144.841H144.759H145.485L145.71 144.15L159.165 102.739Z" stroke="#79BEF5" stroke-opacity="0.4" stroke-width="2"/>
<rect x="181" y="209" width="92" height="92" rx="46" fill="white" stroke="#699BF7" stroke-width="8"/>
<path fill-rule="evenodd" clip-rule="evenodd" d="M231.14 286.925C232.949 285.492 234.578 283.664 236.012 281.446C243.479 269.9 251.54 269.531 255.384 270.189C250.57 279.147 241.64 285.57 231.14 286.925ZM198.008 269.002C201.129 270.743 205.897 272.714 211.492 272.714C211.962 272.714 212.44 272.695 212.922 272.666C213.002 272.667 213.082 272.672 213.164 272.672C213.347 272.672 213.533 272.669 213.717 272.662L213.715 272.605C218.142 272.185 222.99 270.452 227.89 266.417C243.042 253.94 255.534 258.597 258.779 260.174C258.65 260.974 258.487 261.761 258.3 262.54C254.005 261.125 241.259 258.623 228.219 272.543C220.53 280.75 211.464 280.392 205.088 278.565C202.176 275.856 199.762 272.619 198.008 269.002ZM213.427 269.866C206.197 270.012 200.152 264.298 199.906 257.048C199.812 254.289 200.799 251.657 202.684 249.64C204.569 247.621 207.128 246.459 209.888 246.365C212.02 246.29 214.054 247.056 215.614 248.512C217.174 249.97 218.072 251.947 218.145 254.08C218.201 255.712 217.617 257.268 216.502 258.461C215.388 259.654 213.875 260.341 212.243 260.397C211.014 260.453 209.839 259.999 208.939 259.158C208.04 258.317 207.521 257.177 207.48 255.946C207.416 254.068 208.891 252.488 210.77 252.425C212.115 252.39 213.253 253.438 213.298 254.786C213.298 254.786 214.813 252.806 212.247 250.614C210.437 249.067 207.564 250.297 206.124 251.862C206.074 251.921 206.021 251.977 205.974 252.038C205.97 252.043 205.967 252.047 205.963 252.052C205.704 252.364 205.489 252.7 205.335 253.051C205.332 253.058 205.328 253.065 205.325 253.072C204.881 253.965 204.645 254.976 204.681 256.041C204.82 260.125 208.26 263.328 212.338 263.196C214.718 263.114 216.923 262.112 218.548 260.373C219.172 259.706 219.679 258.96 220.066 258.16C221.695 260.911 224.43 262.698 227.432 263.207C226.993 263.545 226.553 263.891 226.11 264.256C221.697 267.89 217.368 269.468 213.427 269.866ZM227 222.8C244.755 222.8 259.2 237.245 259.2 255C259.2 255.771 259.164 256.533 259.11 257.289C254.998 255.605 244.754 252.824 232.434 259.862L232.433 259.859C228.512 261.646 223.868 259.912 222.079 255.992C221.417 254.541 221.36 252.918 221.919 251.424C222.477 249.93 223.583 248.742 225.034 248.081C226.128 247.582 227.348 247.539 228.474 247.959C229.6 248.38 230.494 249.213 230.993 250.306C231.361 251.112 231.392 252.014 231.082 252.844C230.772 253.674 230.157 254.334 229.351 254.702C228.774 254.965 228.13 254.988 227.535 254.765C226.941 254.544 226.469 254.104 226.205 253.526C225.835 252.714 226.194 251.751 227.007 251.381C227.007 251.381 224.749 250.614 224.147 252.994C223.656 254.93 224.707 256.65 226.555 257.388C227.85 257.873 229.256 257.822 230.513 257.249C232 256.571 233.133 255.354 233.705 253.824C234.277 252.292 234.218 250.63 233.54 249.144C232.731 247.371 231.28 246.018 229.454 245.336C227.628 244.654 225.646 244.724 223.872 245.533C222.081 246.35 220.654 247.717 219.755 249.434C219.194 248.339 218.452 247.332 217.526 246.467C215.42 244.499 212.67 243.475 209.792 243.566C206.285 243.686 203.034 245.164 200.638 247.728C198.242 250.292 196.988 253.636 197.107 257.143C197.248 261.29 198.957 265.017 201.642 267.782C198.883 266.533 196.962 265.104 196.239 264.525C195.305 261.514 194.8 258.315 194.8 255C194.8 237.245 209.245 222.8 227 222.8ZM225.019 287.133C219.539 286.798 214.426 285.089 210.02 282.342C210.817 282.415 211.63 282.457 212.458 282.457C218.179 282.457 224.548 280.556 230.262 274.457C242.6 261.288 254.086 263.967 257.532 265.207C257.258 266.026 256.958 266.833 256.62 267.622C252.292 266.722 242.341 266.505 233.661 279.926C231.31 283.561 228.404 285.981 225.019 287.133ZM227 220C207.701 220 192 235.701 192 255C192 273.74 206.805 289.084 225.333 289.958L225.338 289.974C225.354 289.97 225.369 289.964 225.385 289.959C225.921 289.984 226.458 290 227 290C246.299 290 262 274.299 262 255C262 235.701 246.299 220 227 220Z" fill="#699BF7"/>
<rect x="45" y="209" width="92" height="92" rx="46" fill="white" stroke="#959595" stroke-width="8"/>
<path fill-rule="evenodd" clip-rule="evenodd" d="M92.4 287.165C109.508 286.429 123.2 272.287 123.2 255C123.2 237.714 109.508 223.572 92.4 222.836V231.028C94.5857 231.056 99.0858 231.227 104.724 232.078L105.873 232.251L105.915 233.407C105.926 233.655 106.245 238.682 111.813 240.475L112.836 240.805L112.044 256.649C112.016 257.332 111.133 273.585 92.4 282.923V287.165ZM58.8 255C58.8 272.287 72.4926 286.429 89.6 287.165V282.923C70.8674 273.585 69.9843 257.332 69.9558 256.635L69.1645 240.805L70.1871 240.475C75.8341 238.656 76.0833 233.464 76.0855 233.413L76.127 232.251L77.2755 232.078C82.9142 231.227 87.4143 231.056 89.6 231.028V222.836C72.4926 223.572 58.8 237.714 58.8 255ZM109.46 252.258L109.934 242.767C105.053 240.753 103.664 236.708 103.27 234.696C98.3455 234.01 94.3762 233.858 92.4 233.83V246.648C95.2521 247.206 97.5128 249.427 98.1283 252.258H109.46ZM92.4 260.968V279.774C108.465 271.068 109.24 256.672 109.246 256.522L109.32 255.058H98.1826C97.6663 258.031 95.3518 260.391 92.4 260.968ZM83.841 255.208H72.688L72.753 256.509C72.781 257.134 73.603 271.13 89.6 279.776V260.968C86.6975 260.401 84.4077 258.11 83.841 255.208ZM91 258.306C93.4803 258.306 95.4974 256.288 95.4974 253.808C95.4974 251.328 93.4803 249.31 91 249.31C88.5203 249.31 86.5027 251.328 86.5027 253.808C86.5027 256.288 88.5203 258.306 91 258.306ZM72.0659 242.767L72.548 252.408H83.841C84.4077 249.506 86.6975 247.215 89.6 246.648V233.83C87.6238 233.858 83.6551 234.01 78.7299 234.696C78.3362 236.708 76.9474 240.754 72.0659 242.767ZM91 220C110.299 220 126 235.701 126 255C126 274.299 110.299 290 91 290C71.7013 290 56 274.299 56 255C56 235.701 71.7013 220 91 220Z" fill="#959595"/>
<rect x="4" y="86" width="92" height="92" rx="46" fill="white" stroke="#A0854F" stroke-width="8"/>
<path fill-rule="evenodd" clip-rule="evenodd" d="M63.3033 161.312V152.086L70.2098 145.18V137.013L75.7516 130.218L81.6904 137.668C79.8093 148.214 72.7819 156.993 63.3033 161.312ZM41.5793 163.076L71.7616 125.213L73.9652 127.978L67.4098 136.015V144.02L60.5033 150.927V162.432C57.2089 163.572 53.6781 164.2 50 164.2C47.0869 164.2 44.2656 163.804 41.5793 163.076ZM23.1088 149.681L49.7401 116.273L52.8633 120.191L43.1433 132.927V139.76L33.508 150.213V159.643C29.3382 157.146 25.78 153.732 23.1088 149.681ZM33.1166 132.636L21.5766 147.111C19.8569 143.889 18.6708 140.342 18.1326 136.588L27.199 125.213L33.1166 132.636ZM62.5233 132.31L38.7283 162.16C37.9051 161.851 37.0981 161.509 36.308 161.136V151.307L45.9433 140.854V133.873L54.6626 122.449L62.5233 132.31ZM50 99.8C67.7553 99.8 82.2 114.245 82.2 132C82.2 132.589 82.1821 133.173 82.1507 133.753L71.7616 120.721L64.3147 130.064L49.7401 111.781L34.9069 130.389L27.199 120.721L17.8129 132.496C17.8106 132.33 17.8 132.166 17.8 132C17.8 114.245 32.2452 99.8 50 99.8ZM50 97C30.7013 97 15 112.701 15 132C15 151.299 30.7013 167 50 167C69.2993 167 85 151.299 85 132C85 112.701 69.2993 97 50 97Z" fill="#A0854F"/>
<rect x="115" y="4" width="92" height="92" rx="46" fill="white" stroke="#F07470" stroke-width="8"/>
<path fill-rule="evenodd" clip-rule="evenodd" d="M175.021 78.9822C178.909 74.9004 181.073 69.1414 180.513 62.9903C178.391 39.6624 157.614 29.6479 156.73 29.2335L154.389 28.1337L154.749 30.6957C156.078 40.1462 151.82 45.2988 148.399 49.4383L147.961 49.9709C144.226 54.5136 140.363 59.2103 141.654 68.387C142.217 72.3944 143.857 75.8804 146.255 78.611C135.899 73.2523 128.8 62.4432 128.8 50C128.8 32.2446 143.245 17.8 161 17.8C178.755 17.8 193.2 32.2446 193.2 50C193.2 62.7322 185.77 73.7608 175.021 78.9822ZM170.013 74.4832C169.399 78.8428 166.033 81.8685 161.817 82.1692C161.644 82.1793 161.473 82.1854 161.301 82.1905C160.778 82.1994 160.246 82.177 159.702 82.1003C154.788 81.4087 151.435 77.0094 151.903 71.8669C152.711 62.9741 158.916 57.6507 162.273 55.3934C162.422 60.1825 164.879 63.1544 166.591 65.2275L166.842 65.5316C168.955 68.1014 170.624 70.1314 170.013 74.4832ZM157.774 33.0141C163.087 36.2486 176.146 45.8896 177.724 63.244C178.275 69.297 175.93 74.7856 171.793 78.2794C172.269 77.2339 172.613 76.0966 172.785 74.8735C173.569 69.3032 171.249 66.4819 169.005 63.7536L168.75 63.4439C166.842 61.1362 164.469 58.2639 165.203 53.0492L165.563 50.4872L163.222 51.587C162.697 51.8334 150.373 57.7734 149.114 71.6132C148.875 74.2368 149.462 76.7383 150.646 78.8585C147.361 76.3508 145.07 72.5725 144.427 67.9967C143.307 60.0386 146.466 56.197 150.124 51.7489L150.558 51.2219C153.816 47.2795 158.173 42.0088 157.774 33.0141ZM196 50C196 30.7007 180.299 15 161 15C141.701 15 126 30.7007 126 50C126 68.7734 140.857 84.1359 159.43 84.9602C159.861 84.9877 160.294 85.0056 160.732 85.0056C160.799 85.0056 160.868 84.9989 160.934 84.9983C160.956 84.9983 160.978 85 161 85C161.01 85 161.021 84.9994 161.031 84.9994C161.074 85 161.119 85.0039 161.162 85.0039C161.312 85.0039 161.458 84.9905 161.606 84.9849C180.626 84.6584 196 69.096 196 50Z" fill="#F07470"/>
<rect x="223" y="86" width="92" height="92" rx="46" fill="white" stroke="#8BD285" stroke-width="8"/>
<path fill-rule="evenodd" clip-rule="evenodd" d="M274.88 163.652V136.398C276.147 138.077 277.92 139.899 280.262 141.168C283.176 142.746 286.326 143.12 288.655 143.12C290.656 143.12 292.052 142.844 292.173 142.819L293.807 142.485L293.195 140.934C293.096 140.684 290.721 134.793 285.304 131.859C284.117 131.217 282.891 130.774 281.697 130.475C282.751 129.85 283.793 129.079 284.742 128.129C289.098 123.774 289.696 117.45 289.72 117.183L289.864 115.521L288.203 115.666C287.936 115.689 281.612 116.288 277.257 120.644C276.291 121.609 275.511 122.671 274.88 123.742V100.348C289.836 103.12 301.2 116.253 301.2 132C301.2 147.747 289.836 160.88 274.88 163.652ZM266.412 164.086V133.112H272.08V164.049C271.066 164.146 270.039 164.2 269 164.2C268.128 164.2 267.267 164.155 266.412 164.086ZM236.8 132C236.8 121.408 241.942 111.996 249.86 106.124V157.875C241.942 152.003 236.8 142.592 236.8 132ZM260.568 100.928C261.564 100.657 262.58 100.434 263.612 100.259V163.74C262.58 163.566 261.564 163.343 260.568 163.072V100.928ZM252.66 148.138H257.768V162.174C255.984 161.509 254.278 160.687 252.66 159.73V148.138ZM257.768 115.661H252.66V104.27C254.278 103.313 255.984 102.491 257.768 101.825V115.661ZM252.66 145.338H257.768V118.461H252.66V145.338ZM275.525 129.952C275.485 129.954 275.448 129.957 275.409 129.96C275.874 128.011 276.931 124.929 279.236 122.623C281.551 120.309 284.648 119.252 286.596 118.79C286.133 120.738 285.077 123.835 282.763 126.15C280.493 128.419 277.477 129.476 275.525 129.952ZM283.97 134.321C286.849 135.88 288.744 138.548 289.743 140.283C287.743 140.396 284.473 140.264 281.596 138.705C278.727 137.152 276.836 134.498 275.835 132.763C275.87 132.755 275.904 132.747 275.94 132.739C277.947 132.636 281.146 132.792 283.97 134.321ZM272.08 99.9506V130.312H266.412V99.9131C267.267 99.8448 268.128 99.8 269 99.8C270.039 99.8 271.066 99.8538 272.08 99.9506ZM269 97C249.701 97 234 112.701 234 132C234 151.299 249.701 167 269 167C288.299 167 304 151.299 304 132C304 112.701 288.299 97 269 97Z" fill="#8BD285"/>
</svg>
