<svg width="100" height="100" viewBox="0 0 100 100" fill="none" xmlns="http://www.w3.org/2000/svg">
<rect x="4" y="4" width="92" height="92" rx="46" fill="white" stroke="#699BF7" stroke-width="8"/>
<path fill-rule="evenodd" clip-rule="evenodd" d="M54.1401 81.925C55.9489 80.492 57.5779 78.6642 59.0121 76.446C66.4791 64.9005 74.5398 64.5309 78.3836 65.1889C73.5704 74.1472 64.6395 80.5704 54.1401 81.925ZM21.0082 64.0022C24.1291 65.7433 28.897 67.7139 34.4925 67.7139C34.9623 67.7139 35.44 67.6949 35.9216 67.6658C36.0022 67.6669 36.0823 67.6719 36.1635 67.6719C36.3472 67.6719 36.5326 67.6686 36.7168 67.6624L36.7146 67.6047C41.1425 67.1853 45.9898 65.4521 50.8904 61.4167C66.0418 48.9399 78.5342 53.5974 81.7789 55.1744C81.6495 55.9735 81.4871 56.7614 81.3001 57.5404C77.0054 56.1253 64.2593 53.6232 51.2191 67.5426C43.5298 75.7499 34.4639 75.3915 28.0883 73.5654C25.1763 70.8561 22.7622 67.6193 21.0082 64.0022ZM36.4267 64.8658C29.1966 65.0125 23.1519 59.2982 22.9055 52.0479C22.812 49.2888 23.7987 46.6574 25.6842 44.6397C27.5692 42.6214 30.1278 41.4589 32.8875 41.3654C35.02 41.2903 37.0545 42.0558 38.6141 43.5124C40.1737 44.9701 41.0725 46.9469 41.1447 49.0805C41.2007 50.7123 40.6172 52.268 39.5022 53.4614C38.3878 54.6542 36.8747 55.3413 35.2429 55.3967C34.0142 55.4533 32.8388 54.9986 31.9394 54.158C31.0395 53.3174 30.521 52.1767 30.4795 50.9458C30.4157 49.0676 31.8913 47.4878 33.7695 47.4246C35.1146 47.3904 36.2526 48.4382 36.2979 49.7861C36.2979 49.7861 37.8133 47.8065 35.2468 45.6135C33.4369 44.0668 30.5635 45.2966 29.1238 46.8623C29.0745 46.9211 29.0213 46.9771 28.9742 47.0376C28.9703 47.0426 28.967 47.0471 28.963 47.0516C28.7043 47.3635 28.4887 47.6995 28.3353 48.0512C28.3325 48.0579 28.328 48.0652 28.3252 48.0725C27.8806 48.9651 27.6448 49.9765 27.6806 51.041C27.8195 55.1251 31.2596 58.3283 35.3381 58.1956C37.7175 58.1144 39.9228 57.112 41.5485 55.3726C42.1718 54.7057 42.6786 53.9598 43.0655 53.1601C44.6946 55.9114 47.4296 57.6983 50.4318 58.2074C49.9927 58.545 49.5526 58.8911 49.1102 59.2557C44.6968 62.8901 40.368 64.4676 36.4267 64.8658ZM50 17.8C67.7554 17.8 82.2 32.2446 82.2 50C82.2 50.7706 82.1636 51.5327 82.1098 52.2893C77.9983 50.6054 67.7537 47.8238 55.4342 54.8625L55.4326 54.8586C51.512 56.6455 46.8679 54.9118 45.0793 50.9923C44.4174 49.5408 44.3602 47.9179 44.9186 46.4238C45.4769 44.9298 46.5829 43.742 48.0344 43.0806C49.1275 42.5817 50.3483 42.5386 51.4745 42.9591C52.6001 43.3797 53.4938 44.213 53.9928 45.3055C54.3607 46.1125 54.3921 47.0135 54.0818 47.844C53.7722 48.6739 53.1573 49.3336 52.3509 49.7015C51.7741 49.9653 51.1295 49.9877 50.5348 49.7654C49.9406 49.5436 49.4686 49.104 49.2054 48.5261C48.8346 47.7141 49.1942 46.7514 50.0067 46.3807C50.0067 46.3807 47.7494 45.6135 47.1468 47.9935C46.6562 49.93 47.7068 51.6498 49.5548 52.3884C50.8501 52.8728 52.2557 52.8218 53.5129 52.249C54.9997 51.5708 56.1331 50.3545 56.7054 48.824C57.2772 47.2924 57.2184 45.6303 56.5402 44.1441C55.731 42.3706 54.2801 41.0182 52.4545 40.3361C50.6278 39.654 48.6459 39.724 46.8724 40.5332C45.081 41.3502 43.6541 42.7172 42.7553 44.4336C42.1936 43.3388 41.4516 42.3319 40.5259 41.4667C38.4198 39.4989 35.6702 38.4746 32.7923 38.5665C29.285 38.6858 26.0342 40.1636 23.638 42.7278C21.2423 45.2921 19.9885 48.6364 20.1072 52.1431C20.2483 56.2899 21.9574 60.0173 24.6421 62.782C21.883 61.5326 19.9616 60.1035 19.2386 59.525C18.3046 56.5139 17.8 53.3146 17.8 50C17.8 32.2446 32.2452 17.8 50 17.8ZM48.0193 82.1334C42.5386 81.7985 37.4263 80.0888 33.0202 77.342C33.8171 77.4148 34.6297 77.4568 35.4579 77.4568C41.1789 77.4568 47.5483 75.5556 53.262 69.4566C65.6005 56.2877 77.0855 58.9673 80.5323 60.2071C80.2579 61.0264 79.9578 61.8334 79.6201 62.6218C75.2924 61.7219 65.3406 61.5052 56.6612 74.9256C54.3098 78.5606 51.4039 80.9814 48.0193 82.1334ZM50 15C30.7013 15 15 30.7007 15 50C15 68.7404 29.8053 84.0844 48.3334 84.958L48.3385 84.9742C48.3542 84.9698 48.3693 84.9642 48.385 84.9591C48.9209 84.9838 49.4585 85 50 85C69.2993 85 85 69.2993 85 50C85 30.7007 69.2993 15 50 15Z" fill="#699BF7"/>
</svg>
