<svg width="100" height="100" viewBox="0 0 100 100" fill="none" xmlns="http://www.w3.org/2000/svg">
<rect x="4" y="4" width="92" height="92" rx="46" fill="white" stroke="#8BD285" stroke-width="8"/>
<path fill-rule="evenodd" clip-rule="evenodd" d="M55.88 81.6523V54.3977C57.1467 56.0771 58.9197 57.8988 61.2622 59.1678C64.1764 60.7458 67.3258 61.1199 69.6554 61.1199C71.6563 61.1199 73.0524 60.8438 73.1734 60.8192L74.8074 60.4849L74.1948 58.9337C74.0962 58.6839 71.7213 52.7933 66.3044 49.8594C65.1172 49.2166 63.8914 48.7736 62.6974 48.4746C63.7508 47.8496 64.793 47.079 65.7422 46.1293C70.0984 41.7736 70.6965 35.4495 70.72 35.183L70.8645 33.5209L69.203 33.6665C68.9358 33.6894 62.6123 34.2875 58.2566 38.6438C57.2912 39.6092 56.5111 40.671 55.88 41.7422V18.3477C70.8359 21.1197 82.2 34.2528 82.2 50C82.2 65.7466 70.8359 78.8798 55.88 81.6523ZM47.4122 82.0863V51.1122H53.08V82.0494C52.0658 82.1457 51.0394 82.2 50 82.2C49.1281 82.2 48.2674 82.1546 47.4122 82.0863ZM17.8 50C17.8 39.4076 22.9425 29.9962 30.8598 24.1241V75.8754C22.9425 70.0032 17.8 60.5924 17.8 50ZM41.5675 18.9278C42.5643 18.6568 43.5802 18.4339 44.6122 18.2592V81.7402C43.5802 81.5661 42.5643 81.3426 41.5675 81.0722V18.9278ZM33.6598 66.1381H38.7675V80.1745C36.9845 79.5086 35.2782 78.6866 33.6598 77.7295V66.1381ZM38.7675 33.6609H33.6598V22.2699C35.2782 21.3129 36.9845 20.4908 38.7675 19.825V33.6609ZM33.6598 63.3381H38.7675V36.4609H33.6598V63.3381ZM56.5246 47.9515C56.4854 47.9543 56.4478 47.9571 56.4092 47.9599C56.874 46.0106 57.9307 42.9294 60.2362 40.6234C62.5513 38.3094 65.6481 37.2522 67.5958 36.7902C67.1332 38.7378 66.077 41.8352 63.7626 44.1497C61.4929 46.4194 58.4773 47.4755 56.5246 47.9515ZM64.9705 52.3212C67.8489 53.8802 69.7445 56.5481 70.743 58.283C68.7426 58.3955 65.4734 58.2639 62.5961 56.7054C59.7272 55.152 57.8361 52.4976 56.8348 50.7627C56.8695 50.7549 56.9042 50.747 56.9395 50.7386C58.9471 50.6362 62.1458 50.7918 64.9705 52.3212ZM53.08 17.9506V48.3122H47.4122V17.9131C48.2674 17.8448 49.1281 17.8 50 17.8C51.0394 17.8 52.0658 17.8538 53.08 17.9506ZM50 15C30.7013 15 15 30.7007 15 50C15 69.2987 30.7013 85 50 85C69.2987 85 85 69.2987 85 50C85 30.7007 69.2987 15 50 15Z" fill="#8BD285"/>
</svg>
